<svg width="98" height="79" viewBox="0 0 98 79" fill="none" xmlns="http://www.w3.org/2000/svg">
<ellipse cx="49" cy="39.5" rx="49" ry="24.5" fill="#FFE8E8" fill-opacity="0.41"/>
<circle cx="48.5" cy="39.5" r="39.5" fill="#FFE8E8"/>
<g clip-path="url(#clip0_2_16)">
<path d="M31.1375 46.475C31.2812 47.0063 31.8313 47.325 32.3625 47.1812L45.8875 43.5562C46.4188 43.4125 46.7375 42.8625 46.5938 42.3312L43.4875 30.7375C43.3438 30.2063 42.7937 29.8875 42.2625 30.0312L37.4375 31.3313L38.9875 37.125L35.125 38.1562L33.575 32.3625L28.7437 33.6562C28.2125 33.8 27.8937 34.35 28.0375 34.8813L31.1375 46.475ZM52 23C50.8937 23 50 23.8937 50 25V45.225L28.3687 51.125C28.1 51.2 27.9437 51.475 28.0187 51.7375L28.8062 54.6313C28.8812 54.9 29.1562 55.0563 29.4187 54.9813L54.025 48.2687C54.175 52.0062 57.225 55 61 55C64.8688 55 68 51.8688 68 48V23H52ZM61 51C59.3438 51 58 49.6562 58 48C58 46.3438 59.3438 45 61 45C62.6562 45 64 46.3438 64 48C64 49.6562 62.6562 51 61 51Z" fill="#F55800"/>
</g>
<defs>
<clipPath id="clip0_2_16">
<rect width="40" height="40" fill="white" transform="translate(28 19)"/>
</clipPath>
</defs>
</svg>
