<svg width="20" height="20" viewBox="0 0 20 20" fill="none" xmlns="http://www.w3.org/2000/svg">
<path d="M6.66668 11.6667C7.12691 11.6667 7.50001 11.2936 7.50001 10.8333C7.50001 10.3731 7.12691 10 6.66668 10C6.20644 10 5.83334 10.3731 5.83334 10.8333C5.83334 11.2936 6.20644 11.6667 6.66668 11.6667Z" fill="#FD191A"/>
<path d="M9.99999 11.6667C10.4602 11.6667 10.8333 11.2936 10.8333 10.8333C10.8333 10.3731 10.4602 10 9.99999 10C9.53975 10 9.16666 10.3731 9.16666 10.8333C9.16666 11.2936 9.53975 11.6667 9.99999 11.6667Z" fill="#FD191A"/>
<path d="M4.16666 8.33333H12.5V2.5H4.16666V8.33333ZM4.99999 3.33333H11.6667V7.5H8.66666L7.74999 4.16667L6.91666 4.41667L7.83332 7.5H4.99999V3.33333Z" fill="#FD191A"/>
<path d="M17.8333 3.5L17.1667 4L19.1667 6.66667V13.3333C19.1667 13.8333 18.8333 14.1667 18.3333 14.1667C17.8333 14.1667 17.5 13.8333 17.5 13.3333V10C17.5 8.58333 16.4167 7.5 15 7.5V0.833333C15 0.333333 14.6667 0 14.1667 0H2.5C2 0 1.66667 0.333333 1.66667 0.833333V18.3333H0.833333C0.333333 18.3333 0 18.6667 0 19.1667V20H16.6667V19.1667C16.6667 18.6667 16.3333 18.3333 15.8333 18.3333H15V8.33333C15.9167 8.33333 16.6667 9.08333 16.6667 10V13.3333C16.6667 14.25 17.4167 15 18.3333 15C19.25 15 20 14.25 20 13.3333V6.41667L17.8333 3.5ZM3.33333 18.3333V1.66667H13.3333V18.3333H3.33333Z" fill="#FD191A"/>
</svg>
