<svg width="98" height="79" viewBox="0 0 98 79" fill="none" xmlns="http://www.w3.org/2000/svg">
<ellipse cx="49" cy="39.5" rx="49" ry="24.5" fill="#FFE8E8" fill-opacity="0.41"/>
<circle cx="49.5" cy="39.5" r="39.5" fill="#FFE8E8"/>
<path d="M58.3395 21.006C57.7381 20.9513 57.2616 21.2794 56.9491 21.7324C56.6367 22.1933 56.5742 22.7713 56.7773 23.2869L60.1127 31.6216C60.3705 32.2543 60.9798 32.6683 61.6594 32.6683H63.3232V47.6661C63.3232 49.5017 61.8312 51.0015 59.9877 51.0015C58.1521 51.0015 56.6523 49.5095 56.6523 47.6661V36.0037C56.6523 32.9104 54.5198 30.3171 51.653 29.575V22.6698C51.6609 21.7558 50.9188 21.006 49.997 21.006H33.3354C32.4137 21.006 31.6638 21.7558 31.6638 22.6698V52.6653C30.7499 52.6653 30 53.4152 30 54.3369V59.3362C30 60.2501 30.7499 61 31.6638 61H51.6608C52.5826 61 53.3247 60.2501 53.3247 59.3362V54.3369C53.3247 53.4152 52.5748 52.6731 51.6608 52.6731V33.137C52.6529 33.715 53.3247 34.7773 53.3247 36.0037V47.6661C53.3247 51.3452 56.3164 54.3291 59.9877 54.3291C63.6591 54.3291 66.6508 51.3374 66.6508 47.6661V32.6683H68.3146C69.2364 32.6683 69.9784 31.9184 69.9784 31.0045C69.9941 27.5675 67.5569 21.0528 58.3395 21.006ZM38.3269 26.0052H44.9978C45.9195 26.0052 46.6616 26.7551 46.6616 27.669V34.3321C46.6616 35.2538 45.9117 35.9959 44.9978 35.9959H38.3347C37.413 35.9959 36.6709 35.246 36.6709 34.3321V27.669H36.6631C36.6631 26.7473 37.413 26.0052 38.3269 26.0052ZM44.9978 41.003C44.9978 41.9247 44.2479 42.6668 43.334 42.6668H39.9985C39.0768 42.6668 38.3347 41.9169 38.3347 41.003C38.3347 40.0891 39.0846 39.3392 39.9985 39.3392H43.334C44.2479 39.3392 44.9978 40.0812 44.9978 41.003ZM49.997 57.6646H33.3354V56.0008H49.997V57.6646Z" fill="#E3A400"/>
</svg>
