<svg width="98" height="79" viewBox="0 0 98 79" fill="none" xmlns="http://www.w3.org/2000/svg">
<ellipse cx="49" cy="39.5" rx="49" ry="24.5" fill="#FFE8E8" fill-opacity="0.41"/>
<circle cx="48.5" cy="39.5" r="39.5" fill="#FFE8E8"/>
<g clip-path="url(#clip0_1_11)">
<path d="M67.3277 57.2948H63.1671C62.9379 54.6838 62.4417 49.2202 62.1205 47.0782C61.7549 44.6388 59.7612 42.5628 57.1596 41.9123L54.4516 41.2353C54.0139 43.8494 51.7366 45.8485 49.0001 45.8485C46.2637 45.8485 43.9864 43.8494 43.5487 41.2353L40.8407 41.9123C38.2391 42.5627 36.2453 44.6388 35.8797 47.0782C35.5585 49.2202 35.0624 54.6838 34.8331 57.2948H30.6723C29.9254 57.2948 29.3197 57.9005 29.3197 58.6474C29.3197 59.3943 29.9254 60 30.6723 60H67.3275C68.0745 60 68.6801 59.3943 68.6801 58.6474C68.6801 57.9005 68.0747 57.2948 67.3277 57.2948ZM59.5966 57.2948H57.703V48.5059H40.2971V57.2948H38.4035V47.5591C38.4035 47.0361 38.8273 46.6123 39.3503 46.6123H58.65C59.1729 46.6123 59.5968 47.0361 59.5968 47.5591V57.2948H59.5966Z" fill="#FF3232"/>
<path d="M49.0001 35.4389C52.6504 35.4389 55.4816 30.6237 55.4816 26.4815C55.4816 22.5441 52.9374 20 49.0001 20C45.0629 20 42.5187 22.5441 42.5187 26.4815C42.5187 30.6238 45.3499 35.4389 49.0001 35.4389Z" fill="#FF3232"/>
<path d="M46.478 36.7834C46.4708 37.7841 46.2738 39.2009 45.3648 40.2268C45.3648 42.2312 46.9954 43.9549 49 43.9549C51.0046 43.9549 52.6352 42.2312 52.6352 40.2268C51.7263 39.2009 51.5292 37.7842 51.5223 36.7834C50.7331 37.1359 49.8874 37.3327 49.0001 37.3327C48.113 37.3327 47.2672 37.1359 46.478 36.7834Z" fill="#FF3232"/>
</g>
<defs>
<clipPath id="clip0_1_11">
<rect width="40" height="40" fill="white" transform="translate(29 20)"/>
</clipPath>
</defs>
</svg>
