<svg width="98" height="79" viewBox="0 0 98 79" fill="none" xmlns="http://www.w3.org/2000/svg">
<ellipse cx="49" cy="39.5" rx="49" ry="24.5" fill="#FFE8E8" fill-opacity="0.41"/>
<circle cx="49.5" cy="39.5" r="39.5" fill="#FFE8E8"/>
<path d="M48.3231 57.8938C47.6338 57.9477 47.04 57.9369 46.9046 57.8738C46.7938 57.8215 47.0323 57.5723 47.3292 57.3277C47.6738 57.0431 47.36 56.7523 47.1938 56.6046C46.6369 56.1092 46.1077 55.5708 45.6092 54.9969C45.4862 54.8554 45.1969 54.5677 44.6446 54.5769C43.7677 54.5923 42.6585 54.6308 42.5185 54.5646C42.4169 54.5169 43.0015 54.0292 43.5723 53.5708C44.0677 53.1723 43.8677 52.66 43.7246 52.4246C43.2646 51.6692 42.8508 50.8738 42.48 50.0431C42.4031 49.8708 42.1692 49.5431 41.6385 49.5338C40.8062 49.5215 39.86 49.5785 39.7308 49.5185C39.6292 49.4692 40.3631 48.7769 41.1031 48.1631C41.2738 48.0215 41.5446 47.6923 41.3815 47.0246C41.1492 46.0631 40.8908 45.0923 40.7323 44.0831C40.6938 43.8369 40.4862 43.3415 39.9338 43.3554C39.1785 43.3785 38.4154 43.3877 38.3 43.3338C38.2 43.2862 38.9554 42.6092 39.7862 41.9908C40.0108 41.8262 40.3646 41.7046 40.4308 40.84C40.4492 40.5954 40.4154 40.3492 40.4154 40.1015C40.4154 39.2692 40.4446 38.4492 40.54 37.6446C40.6292 36.8985 40.18 36.7477 39.9323 36.76C39.1708 36.7985 38.3985 36.8369 38.2862 36.7831C38.1754 36.7308 39.2754 35.9385 40.3385 35.2846C40.5523 35.1554 40.9185 34.9046 41.1185 34.2308C41.3954 33.3 41.6308 32.3692 41.9769 31.4908C42.2892 30.6969 41.6508 30.5646 41.3277 30.5708C40.5077 30.5862 39.84 30.6292 39.7092 30.5692C39.5862 30.5108 40.9923 29.7 42.3031 29.1554C42.6077 29.0277 43.1631 28.7815 43.6846 27.9477C44.0785 27.32 44.5123 26.7277 44.92 26.1292C45.3215 25.5415 44.8785 25.4631 44.6123 25.4631C43.6031 25.4631 42.7246 25.5415 42.5723 25.4677C42.4308 25.4031 44.6631 24.5431 46.0046 24.2046C46.2969 24.1308 46.7046 24.0231 47.2415 23.5815C47.6985 23.2046 48.1308 22.8 48.6092 22.4646C49.0338 22.1662 48.6892 22.1046 48.4954 22.1015C47.3815 22.0862 46.3677 22.1831 46.2015 22.1046C46.0415 22.0292 49.0462 21.4862 50.2277 21.4046C51.2662 20.8138 53.0369 20.3308 54.1831 20C53.8862 20 53.6354 20.0015 53.5385 20.0092H46.8708C46.4954 20.0569 44.8908 19.9877 44.6 20.0092C43.8446 20.0908 43.3231 20.1677 42.5985 20.4585C42.1215 20.6508 41.9662 21.2646 42.2908 21.3954C42.6508 21.54 44.0215 22.0154 43.8538 22.1C43.7154 22.1692 41.9031 22.1 40.7662 22.0215C40.3138 21.9892 39.6862 21.9492 39.4215 22.1415C38.7477 22.6308 38.9569 22.5246 38.3292 23.1569C38.08 23.4077 38.0169 23.9492 38.3769 24.1185C38.7231 24.2785 40.4015 25.4 40.1769 25.5123C39.9846 25.6092 37.6446 25.7738 37.0723 25.72C36.5062 25.6677 36.2077 25.7 35.9862 26.0154C35.4369 26.7985 35.3785 27.0754 34.9246 27.9938C34.7446 28.3569 34.76 29.0092 35.0338 29.1492C35.3077 29.2877 36.6 29.9031 37.3877 30.56C36.4985 30.4877 34.7785 30.8492 34.3938 30.8492C34.0092 30.8492 33.7031 30.8692 33.5677 31.2754C33.2215 32.3062 33.1585 32.6969 32.9369 33.7846C32.8508 34.22 33.0077 34.6615 33.3446 34.8538C33.6815 35.0462 36.2308 36.7738 35.9708 36.76C35.5385 36.7354 33.3062 37.2662 32.9692 37.2723C32.6323 37.2785 32.4123 37.5415 32.3754 37.9846C32.3062 38.8138 32.3385 38.8138 32.3385 39.6615C32.34 39.9662 32.3446 40.2708 32.3538 40.5708C32.3677 41.0123 32.7631 41.4923 33.1323 41.6662C33.6369 41.9062 36.2262 43.1785 35.9954 43.2954C35.8046 43.3908 33.4631 43.68 33.2231 43.6877C32.6785 43.7046 32.6123 44.2492 32.6754 44.6938C32.8354 45.8092 32.8477 46.0169 33.1369 47.0831C33.2215 47.4031 33.5031 47.6923 33.7923 47.7892C34.0815 47.8862 37.7415 49.38 37.5092 49.4969C37.3169 49.5938 35.1231 50.0123 34.7769 50.0277C34.3169 50.0523 34.3646 50.7062 34.5754 51.1815C34.9985 52.1385 34.8 51.8462 35.3092 52.6985C35.4138 52.8785 35.8846 53.1631 36.0308 53.1938C36.32 53.2585 40.4831 54.4277 40.2508 54.5431C40.0585 54.64 37.8338 54.7477 37.4215 54.7708C37.0092 54.7938 37.0631 55.4108 37.2985 55.6923C37.8969 56.4046 37.7554 56.2846 38.4031 56.8477C38.7708 57.1677 39.6277 57.1415 39.6846 57.1846C40.5415 57.32 44.1462 57.7985 43.9277 57.9092C43.7354 58.0062 42.4062 58.1523 41.1385 58.3031C40.7369 58.2846 41.06 58.8431 41.3477 58.9846C42.0646 59.3462 42.8062 59.6154 43.5554 59.7846C43.5846 59.7908 43.6108 59.7938 43.6369 59.7938C43.9046 59.7938 45.5815 59.9538 45.8769 59.9538C46.2569 59.9538 51.4031 59.9815 53.9215 59.9938C52.4538 59.5692 50.4954 58.9231 49.1385 58.0877C49.0246 58.0185 48.7323 57.86 48.3231 57.8938Z" fill="#6788F1"/>
<path d="M67.6138 38.1508C67.5862 37.6969 67.3523 37.3723 67.0215 37.4015C67.0138 37.4031 67.0062 37.42 66.9969 37.4215C66.9492 36.8677 66.8908 36.3185 66.8077 35.7785C66.8169 35.7769 66.8231 35.7785 66.8292 35.7754C67.1185 35.6569 67.2923 35.2031 67.2138 34.7631C67.0169 33.6615 66.7523 32.5738 66.4323 31.5338C66.3092 31.1169 65.6508 30.9446 65.6508 30.9446C65.6508 30.9446 65.34 30.1815 65.1446 29.7138C65.1508 29.7062 65.16 29.7092 65.1662 29.7031C65.4123 29.4431 65.4754 28.9292 65.3031 28.5554C64.8723 27.6154 64.3815 26.7262 63.8508 25.9108C63.64 25.5877 62.8462 25.6215 62.84 25.6338C62.7677 25.5138 62.5169 25.1954 62.2262 24.8492C62.2338 24.8354 62.2431 24.8431 62.2492 24.8292C62.4262 24.4585 62.3677 23.9415 62.1246 23.6769C61.5046 23.0092 60.8477 22.4215 60.1692 21.9277C59.8954 21.7323 58.7077 21.9062 58.7077 21.9062L58.4046 21.7523C58.4092 21.74 58.4169 21.7369 58.4185 21.7277C58.5015 21.2892 58.3323 20.8323 58.0446 20.7077C57.3169 20.3985 56.5677 20.1815 55.8108 20.0662C55.5908 20.0231 54.8046 20.0031 54.2077 20C53.0462 20.4 51.9277 20.9492 50.8692 21.6385C51.8908 21.76 49.5815 23.3846 49.7585 22.4323C49.0908 22.9523 48.4554 23.5323 47.8554 24.1692C48.8338 24.2631 47.0138 26.5708 46.7154 25.5015C45.9477 26.4954 45.2585 27.5938 44.66 28.7892C45.5492 28.5231 44.4769 31.4492 43.8492 30.6246C43.3523 31.8969 42.9569 33.2615 42.6738 34.7123C43.5015 34.4077 43.1108 37.0738 42.3646 36.6908C42.2354 37.7846 42.1677 38.9231 42.1677 40.0985C42.1677 40.3431 42.1708 40.5862 42.1769 40.8277C42.9815 40.4892 43.3723 42.9277 42.3015 42.9492C42.4446 44.4185 42.6969 45.8092 43.0446 47.1154C43.5338 46.6338 44.8031 48.7492 43.6646 49.0846C44.0908 50.2508 44.6 51.34 45.1815 52.3477C45.4831 51.7708 47.0123 53.6569 46.14 53.8462C46.8169 54.8062 47.5677 55.6738 48.3738 56.4492C48.5077 55.9 50.1015 57.1031 49.4769 57.4231C50.8538 58.5338 52.3631 59.3938 53.9538 59.9938C54.7585 59.9969 55.2908 60 55.2908 60C56.1015 59.9708 56.4938 59.88 56.8308 59.7831C57.1262 59.6969 57.7138 58.7815 57.7138 58.7815C57.7138 58.7815 58.7785 58.7308 58.9985 58.7308C59.0646 58.7308 59.1308 58.7123 59.1954 58.6754C59.8969 58.2646 60.5815 57.7585 61.2338 57.1677C61.4923 56.9354 61.5754 56.4277 61.42 56.0369C61.4154 56.0277 61.4077 56.0277 61.4062 56.0185C61.7123 55.7123 61.7738 55.6369 62.0662 55.2923C62.0692 55.3015 62.5646 55.3538 62.7185 55.3538C62.8431 55.3538 62.9723 55.2877 63.0723 55.1538C63.6462 54.4077 64.1815 53.5815 64.6615 52.6938C64.8508 52.3415 64.82 51.8246 64.5877 51.5338C64.5785 51.5231 64.5677 51.5292 64.56 51.52C64.78 51.0738 64.94 50.7754 65.1385 50.2985C65.1446 50.3062 65.3831 50.2769 65.4754 50.2769C65.6646 50.2769 65.8446 50.1262 65.9477 49.86C66.3231 48.8662 66.64 47.8154 66.8969 46.7369C66.9985 46.3077 66.8492 45.8354 66.5662 45.68C66.5615 45.6785 66.5569 45.6831 66.5523 45.6815C66.6615 45.1523 66.7492 44.6123 66.8277 44.0662C66.8354 44.0677 66.8369 44.08 66.8431 44.0815C66.8754 44.0892 66.9077 44.0923 66.9369 44.0923C67.2 44.0923 67.4292 43.8077 67.4754 43.4077C67.6031 42.2831 67.6692 41.1292 67.6692 39.9785C67.6677 39.3631 67.6492 38.7523 67.6138 38.1508ZM55.3646 52.7123C51.1723 52.7123 47.7738 47.0215 47.7738 40.0046C47.7738 32.9846 51.1723 27.2954 55.3646 27.2954C59.5585 27.2954 62.9538 32.9846 62.9538 40.0046C62.9538 47.02 59.5585 52.7123 55.3646 52.7123Z" fill="#6788F1"/>
</svg>
