<svg width="98" height="79" viewBox="0 0 98 79" fill="none" xmlns="http://www.w3.org/2000/svg">
<ellipse cx="49" cy="39.5" rx="49" ry="24.5" fill="#FFE8E8" fill-opacity="0.41"/>
<circle cx="49.5" cy="39.5" r="39.5" fill="#FFE8E8"/>
<path d="M56.3842 45.4331H43.6158V46.4756H56.3842V45.4331Z" fill="#0DAC86"/>
<path d="M56.3842 47.7807H43.6158V48.8232H56.3842V47.7807Z" fill="#0DAC86"/>
<path d="M45.4939 50.9708H54.5059C55.1604 50.9708 55.736 50.6356 56.0722 50.1284H43.9276C44.2639 50.6356 44.8396 50.9708 45.4939 50.9708Z" fill="#0DAC86"/>
<path d="M66.6684 29.6074H65.964V28.3832C65.964 28.1239 65.7536 27.9136 65.4945 27.9136H62.3929C62.3325 26.9851 62.2687 26.0567 62.1986 25.1285C62.1106 24.2167 61.3661 23.4791 60.4404 23.4564C54.0561 23.4564 45.9437 23.4564 39.5596 23.4564C38.6335 23.479 37.8897 24.2167 37.801 25.1285C37.7311 26.0567 37.6672 26.9852 37.6069 27.9136H34.5056C34.2464 27.9136 34.0361 28.1239 34.0361 28.3832V29.6074H33.3316C33.2518 29.6074 33.187 29.6723 33.187 29.7524V34.1576C33.187 34.2376 33.2518 34.3027 33.3316 34.3027H34.0361V35.9026C34.0361 36.1618 34.2464 36.3721 34.5056 36.3721H37.1917C37.1193 38.5612 37.0733 40.751 37.0558 42.9413C35.3055 43.3003 33.9852 44.8527 33.9852 46.7074V52.1658C33.9852 54.2524 35.6562 55.9546 37.7305 56.0074C37.7813 56.0156 37.8334 56.0208 37.8863 56.023V58.5103C37.8863 58.7803 38.1062 58.9999 38.3759 58.9999H41.5316C41.8015 58.9999 42.021 58.7802 42.021 58.5103V56.0257H57.9792V58.5103C57.9792 58.7803 58.1991 58.9999 58.4686 58.9999H61.6243C61.8944 58.9999 62.1141 58.7802 62.1141 58.5103V56.023C62.1671 56.0208 62.2191 56.0156 62.2702 56.0074C64.3441 55.9542 66.015 54.2522 66.015 52.1658V46.7074C66.015 44.8528 64.6947 43.3005 62.9444 42.9414C62.927 40.7511 62.8809 38.5613 62.8084 36.3721H65.4945C65.7536 36.3721 65.964 36.1618 65.964 35.9026V34.3027H66.6684C66.7483 34.3027 66.8131 34.2376 66.8131 34.1576V29.7524C66.8131 29.6724 66.7483 29.6074 66.6684 29.6074ZM39.9305 29.0622H60.0694C60.2716 31.789 60.4337 34.5636 60.5517 37.3212H39.4482C39.5663 34.5632 39.7284 31.7883 39.9305 29.0622ZM34.9752 35.433V34.3028H35.6793C35.7595 34.3028 35.8239 34.2377 35.8239 34.1577V29.7525C35.8239 29.6724 35.7595 29.6075 35.6793 29.6075H34.9752V28.8528H37.5468C37.4119 31.0455 37.3043 33.2391 37.2239 35.4331H34.9752V35.433ZM36.2829 49.0557V46.6359C36.2829 45.9962 36.8015 45.4775 37.4413 45.4775H39.861L36.2829 49.0557ZM57.511 45.5148V46.4756C57.511 46.7191 57.4329 46.9439 57.3016 47.1282C57.4329 47.3124 57.511 47.5373 57.511 47.7808V48.8233C57.511 49.1694 57.3546 49.4789 57.1089 49.6856C57.167 49.8216 57.1995 49.9713 57.1995 50.1285C57.1995 50.3691 57.124 50.5921 56.9955 50.7752C56.4347 51.6039 55.5062 52.0977 54.5061 52.0977H45.4941C44.484 52.0977 43.5475 51.5944 42.9884 50.7512C42.7778 50.4335 42.7456 50.0341 42.8932 49.6877C42.6463 49.4809 42.489 49.1706 42.489 48.8234V47.7809C42.489 47.5374 42.5671 47.3126 42.6984 47.1283C42.5671 46.9441 42.489 46.7192 42.489 46.4757V45.5149L39.5256 40.0967C39.4712 39.9971 39.4957 39.8728 39.584 39.8014C39.6725 39.7302 39.7992 39.7322 39.885 39.8065L43.4925 42.9231C44.0367 42.4362 44.7449 42.1588 45.4941 42.1588H54.5061C55.2552 42.1588 55.9634 42.4361 56.5075 42.9231L60.1151 39.8064C60.2009 39.7321 60.3276 39.7301 60.4161 39.8013C60.5045 39.8727 60.529 39.997 60.4745 40.0966L57.511 45.5148ZM63.7171 46.6359V49.0557L60.139 45.4775H62.5587C63.1985 45.4775 63.7171 45.9962 63.7171 46.6359ZM65.0248 29.6074H64.3207C64.2405 29.6074 64.176 29.6723 64.176 29.7524V34.1576C64.176 34.2376 64.2405 34.3027 64.3207 34.3027H65.0248V35.4329H62.7762C62.6957 33.2388 62.588 31.0453 62.4531 28.8526H65.0248V29.6074V29.6074Z" fill="#0DAC86"/>
<path d="M54.5061 43.2855H45.4941C44.8396 43.2855 44.264 43.6204 43.9278 44.1279H56.0724C55.7361 43.6204 55.1604 43.2855 54.5061 43.2855Z" fill="#0DAC86"/>
<path d="M59.5392 20.2913C59.5392 19.5781 58.9611 19 58.2484 19H54.7696V19.5496C54.7696 19.9059 54.4806 20.195 54.1237 20.195H45.8763C45.5195 20.195 45.2304 19.9059 45.2304 19.5496V19H41.7516C41.0389 19 40.4608 19.5781 40.4608 20.2913V22.7563H59.5392V20.2913Z" fill="#0DAC86"/>
</svg>
