<svg width="15" height="15" viewBox="0 0 15 15" fill="none" xmlns="http://www.w3.org/2000/svg">
<path fill-rule="evenodd" clip-rule="evenodd" d="M13.5 12.7582C13.5 13.1677 13.1678 13.5 12.7583 13.5H2.24175C1.83225 13.5 1.5 13.1677 1.5 12.7582V2.24176C1.5 1.83226 1.83225 1.5 2.24175 1.5H5.25V9.15079C5.25 9.48079 4.85401 9.65028 4.61551 9.42078L3.89626 8.73148C3.59776 8.44423 3.12225 8.45777 2.84025 8.76077C2.562 9.05927 2.577 9.52571 2.874 9.80621L5.016 11.8268C5.5965 12.3743 6.504 12.3713 7.08075 11.82L9.1905 9.80621C9.4845 9.52571 9.498 9.06079 9.22125 8.76379L9.21075 8.75253C8.93175 8.45253 8.46225 8.436 8.16225 8.715L7.38075 9.44321C7.14075 9.66671 6.75 9.49648 6.75 9.16873V1.5H9V4.5C9 5.32875 9.67125 6 10.5 6H13.5V12.7582ZM14.7825 4.28247L10.7175 0.217529C10.578 0.0780293 10.3897 0 10.1925 0H1.5C0.67125 0 0 0.672 0 1.5V13.5C0 14.3287 0.67125 15 1.5 15H13.5C14.3287 15 15 14.3287 15 13.5V4.80753C15 4.61028 14.922 4.42197 14.7825 4.28247Z" fill="#0DAC86"/>
</svg>
