<svg width="26" height="33" viewBox="0 0 26 33" fill="none" xmlns="http://www.w3.org/2000/svg">
<path d="M25.4632 26.2616C25.3666 26.1986 24.6397 25.6872 23.9118 24.14C22.5751 21.2988 22.2945 17.2964 22.2945 14.4391C22.2945 14.4267 22.2942 14.4144 22.2938 14.402C22.2792 10.6257 20.0277 7.37047 16.8058 5.9099V3.67615C16.8058 1.6491 15.1664 0 13.1514 0H12.8486C10.8335 0 9.19421 1.6491 9.19421 3.67615V5.90977C5.9615 7.37505 3.70549 10.6469 3.70549 14.4391C3.70549 17.2964 3.42491 21.2987 2.08817 24.14C1.36035 25.6871 0.633416 26.1986 0.536765 26.2616C0.129756 26.4508 -0.0709248 26.8878 0.0227091 27.3306C0.117241 27.7779 0.533492 28.0862 0.988056 28.0862H8.0441C8.08351 30.8023 10.2908 33 13 33C15.7092 33 17.9165 30.8023 17.9559 28.0862H25.012C25.4665 28.0862 25.8828 27.7779 25.9773 27.3306C26.0708 26.8878 25.8702 26.4507 25.4632 26.2616ZM11.1196 3.67615C11.1196 2.71702 11.8952 1.93675 12.8486 1.93675H13.1515C14.1049 1.93675 14.8805 2.71702 14.8805 3.67615V5.28213C14.2729 5.15599 13.6439 5.08961 12.9998 5.08961C12.3558 5.08961 11.727 5.15593 11.1196 5.28193V3.67615H11.1196ZM13 31.0632C11.3524 31.0632 10.0085 29.7344 9.9694 28.0863H16.0306C15.9916 29.7344 14.6476 31.0632 13 31.0632ZM16.8763 26.1494C16.8761 26.1494 3.18194 26.1494 3.18194 26.1494C3.34848 25.8888 3.51797 25.5936 3.68643 25.2601C4.97664 22.705 5.63086 19.0643 5.63086 14.4391C5.63086 10.3517 8.93654 7.02636 12.9997 7.02636C17.0629 7.02636 20.3685 10.3517 20.3685 14.4423C20.3685 14.4543 20.3687 14.4661 20.3692 14.478C20.3728 19.0846 21.027 22.7122 22.3136 25.2601C22.4821 25.5937 22.6516 25.8888 22.8181 26.1494H16.8763Z" fill="#F55800"/>
</svg>
