<svg width="20" height="25" viewBox="0 0 20 25" fill="none" xmlns="http://www.w3.org/2000/svg">
<path d="M19.5871 19.8952C19.5128 19.8475 18.9536 19.46 18.3937 18.2879C17.3654 16.1355 17.1496 13.1033 17.1496 10.9387C17.1496 10.9293 17.1494 10.92 17.1491 10.9106C17.1379 8.0498 15.4059 5.58369 12.9275 4.4772V2.78496C12.9275 1.24932 11.6665 0 10.1165 0H9.88351C8.3335 0 7.07247 1.24932 7.07247 2.78496V4.4771C4.58577 5.58716 2.85038 8.06587 2.85038 10.9387C2.85038 13.1033 2.63455 16.1354 1.60629 18.2879C1.04642 19.46 0.487243 19.8474 0.412896 19.8952C0.0998124 20.0385 -0.0545576 20.3695 0.0174685 20.705C0.0901858 21.0438 0.410379 21.2774 0.760043 21.2774H6.18777C6.21808 23.3351 7.916 25 10 25C12.084 25 13.782 23.3351 13.8123 21.2774H19.24C19.5896 21.2774 19.9099 21.0438 19.9826 20.705C20.0545 20.3695 19.9002 20.0384 19.5871 19.8952ZM8.55352 2.78496C8.55352 2.05835 9.15017 1.46724 9.88356 1.46724H10.1165C10.8499 1.46724 11.4466 2.05835 11.4466 2.78496V4.00161C10.9792 3.90605 10.4953 3.85576 9.99982 3.85576C9.50448 3.85576 9.02078 3.90601 8.55357 4.00146V2.78496H8.55352ZM10 23.5328C8.73263 23.5328 7.69884 22.5261 7.66877 21.2775H12.3312C12.3012 22.526 11.2674 23.5328 10 23.5328ZM12.9818 19.8102C12.9816 19.8102 2.44765 19.8102 2.44765 19.8102C2.57575 19.6127 2.70613 19.3891 2.83572 19.1364C3.82819 17.2007 4.33143 14.4426 4.33143 10.9387C4.33143 7.84219 6.87426 5.323 9.99977 5.323C13.1253 5.323 15.6681 7.84219 15.6681 10.9412C15.6681 10.9502 15.6683 10.9592 15.6686 10.9682C15.6714 14.458 16.1746 17.2062 17.1643 19.1364C17.2939 19.3892 17.4243 19.6127 17.5524 19.8102H12.9818Z" fill="#F3F5FD"/>
</svg>
