<svg width="18" height="18" viewBox="0 0 18 18" fill="none" xmlns="http://www.w3.org/2000/svg">
<path d="M4.68763 1.44263C4.40444 1.44263 4.17912 1.65713 4.17912 1.92001V5.04893C4.17912 5.31182 4.40444 5.52113 4.68763 5.52113H4.96265C5.24584 5.52113 5.47635 5.31182 5.47635 5.04893V1.92001C5.47635 1.65713 5.24584 1.44263 4.96265 1.44263H4.68763ZM13.0107 1.44263C12.7275 1.44263 12.497 1.65713 12.497 1.92001V5.04893C12.497 5.31182 12.7275 5.52113 13.0107 5.52113H13.2805C13.5637 5.52113 13.7942 5.31182 13.7942 5.04893V1.92001C13.7942 1.65713 13.5637 1.44263 13.2805 1.44263H13.0107ZM2.58093 3.72576C1.66499 3.72576 0.925659 4.4495 0.925659 5.34989V14.8975C0.925659 15.7979 1.66499 16.5268 2.58093 16.5268H15.3924C16.3083 16.5268 17.0477 15.7979 17.0477 14.8975V5.34989C17.0477 4.4495 16.3083 3.72576 15.3924 3.72576H14.1367V5.31357C14.1367 5.71573 13.7864 6.04002 13.3532 6.04002H12.938C12.5048 6.04002 12.1545 5.71573 12.1545 5.31357V3.72576H5.81882V5.31357C5.81882 5.71573 5.46853 6.04002 5.03529 6.04002H4.61499C4.18176 6.04002 3.83665 5.71573 3.83665 5.31357V3.72576H2.58093ZM1.96345 8.25569H16.0047V14.2749C16.0047 14.8809 15.5211 15.3645 14.915 15.3645H3.05831C2.45223 15.3645 1.96345 14.8809 1.96345 14.2749V8.25569Z" fill="#1A47A2"/>
</svg>
