<svg width="18" height="18" viewBox="0 0 18 18" fill="none" xmlns="http://www.w3.org/2000/svg">
<path d="M4.68763 1.44287C4.40444 1.44287 4.17912 1.65737 4.17912 1.92025V5.04918C4.17912 5.31206 4.40444 5.52137 4.68763 5.52137H4.96265C5.24584 5.52137 5.47635 5.31206 5.47635 5.04918V1.92025C5.47635 1.65737 5.24584 1.44287 4.96265 1.44287H4.68763ZM13.0107 1.44287C12.7275 1.44287 12.497 1.65737 12.497 1.92025V5.04918C12.497 5.31206 12.7275 5.52137 13.0107 5.52137H13.2805C13.5637 5.52137 13.7942 5.31206 13.7942 5.04918V1.92025C13.7942 1.65737 13.5637 1.44287 13.2805 1.44287H13.0107ZM2.58093 3.726C1.66499 3.726 0.925659 4.44974 0.925659 5.35014V14.8978C0.925659 15.7982 1.66499 16.5271 2.58093 16.5271H15.3924C16.3083 16.5271 17.0477 15.7982 17.0477 14.8978V5.35014C17.0477 4.44974 16.3083 3.726 15.3924 3.726H14.1367V5.31381C14.1367 5.71598 13.7864 6.04026 13.3532 6.04026H12.938C12.5048 6.04026 12.1545 5.71598 12.1545 5.31381V3.726H5.81882V5.31381C5.81882 5.71598 5.46853 6.04026 5.03529 6.04026H4.61499C4.18176 6.04026 3.83665 5.71598 3.83665 5.31381V3.726H2.58093ZM1.96345 8.25594H16.0047V14.2751C16.0047 14.8812 15.5211 15.3648 14.915 15.3648H3.05831C2.45223 15.3648 1.96345 14.8812 1.96345 14.2751V8.25594Z" fill="white"/>
</svg>
