<svg width="18" height="12" viewBox="0 0 18 12" fill="none" xmlns="http://www.w3.org/2000/svg">
<path fill-rule="evenodd" clip-rule="evenodd" d="M6.12434 11.7006C5.77518 12.0945 5.2059 12.1006 4.85133 11.7138L0.268916 6.71385C0.096506 6.52469 0 6.26807 0 5.9994C0 5.73193 0.096506 5.4741 0.268916 5.28615L4.85133 0.286187C5.2059 -0.100557 5.77518 -0.094533 6.12434 0.29944C6.47241 0.693413 6.46699 1.32594 6.11241 1.71268L3.10012 4.9994H17.1C17.5977 4.9994 18 5.44759 18 5.9994C18 6.55241 17.5977 6.99939 17.1 6.99939H3.10012L6.11241 10.2861C6.46699 10.6741 6.47241 11.3066 6.12434 11.7006Z" fill="black"/>
</svg>
