<svg width="10" height="10" viewBox="0 0 10 10" fill="none" xmlns="http://www.w3.org/2000/svg">
<path d="M1.15046 0.207345C0.890115 -0.0530017 0.468002 -0.0530017 0.207655 0.207345C-0.0526982 0.467692 -0.0526982 0.889805 0.207655 1.15015L4.05749 4.99997L0.207695 8.84977C-0.0526581 9.1101 -0.0526581 9.53224 0.207695 9.79257C0.468042 10.0529 0.890155 10.0529 1.1505 9.79257L5.00029 5.94277L8.85009 9.79257C9.11042 10.0529 9.53255 10.0529 9.79289 9.79257C10.0532 9.53224 10.0532 9.1101 9.79289 8.84977L5.94309 4.99997L9.79289 1.15015C10.0533 0.889805 10.0533 0.467692 9.79289 0.207345C9.53255 -0.0530017 9.11049 -0.0530017 8.85009 0.207345L5.00029 4.05717L1.15046 0.207345Z" fill="#0B043A"/>
</svg>
