<svg width="19" height="19" viewBox="0 0 19 19" fill="none" xmlns="http://www.w3.org/2000/svg">
<circle cx="9.5" cy="9.5" r="9.5" fill="#1A47A2"/>
<path d="M11.6904 5.7263L9.5 7.91667L7.30964 5.7263C7.02357 5.44023 6.54961 5.45039 6.25 5.75C5.95039 6.04961 5.94023 6.52357 6.2263 6.80964L8.41667 9L6.2263 11.1904C5.94023 11.4764 5.95039 11.9504 6.25 12.25C6.54961 12.5496 7.02357 12.5598 7.30964 12.2737L9.5 10.0833L11.6904 12.2737C11.9764 12.5598 12.4504 12.5496 12.75 12.25C13.0496 11.9504 13.0598 11.4764 12.7737 11.1904L10.5833 9L12.7737 6.80964C13.0598 6.52357 13.0496 6.04961 12.75 5.75C12.4504 5.45039 11.9764 5.44023 11.6904 5.7263Z" fill="white"/>
</svg>
