<svg width="12" height="12" viewBox="0 0 12 12" fill="none" xmlns="http://www.w3.org/2000/svg">
<path fill-rule="evenodd" clip-rule="evenodd" d="M3.61444 5.99999C3.61444 4.67709 4.69877 3.59999 5.99998 3.59999C7.30118 3.59999 8.38552 4.67709 8.38552 5.99999C8.38552 7.32288 7.30118 8.39999 5.99998 8.39999C4.69877 8.39999 3.61444 7.32288 3.61444 5.99999ZM9.54217 5.4C9.25301 3.88916 8.09639 2.70361 6.57831 2.4506V0.6C6.57831 0.26747 6.28916 0 6 0C5.63855 0 5.42169 0.26747 5.42169 0.6V2.4506C3.90361 2.70361 2.6747 3.88916 2.45783 5.4H0.578313C0.289157 5.4 0 5.66747 0 6C0 6.33253 0.289157 6.6 0.578313 6.6H2.45783C2.6747 8.11084 3.90361 9.29639 5.42169 9.5494V11.4C5.42169 11.7325 5.63855 12 6 12C6.28916 12 6.57831 11.7325 6.57831 11.4V9.5494C8.09639 9.29639 9.25301 8.11084 9.54217 6.6H11.4217C11.7108 6.6 12 6.33253 12 6C12 5.66747 11.7108 5.4 11.4217 5.4H9.54217Z" fill="#FD191A"/>
</svg>
