<svg width="37" height="37" viewBox="0 0 37 37" fill="none" xmlns="http://www.w3.org/2000/svg">
<circle cx="18.5" cy="18.5" r="18.5" fill="#FD191A"/>
<path d="M25.5821 16.0818L23.2354 15.1097L24.2074 12.763C24.3864 12.331 24.1812 11.8357 23.7492 11.6568L17.4912 9.06468C17.0592 8.88575 16.5639 9.09087 16.385 9.52291L15.4129 11.8696L13.0662 10.8976C12.6342 10.7186 12.1389 10.9237 11.9599 11.3558C11.781 11.7878 11.9861 12.2831 12.4182 12.4621L15.5472 13.7581L21.0014 16.0173H13.92C13.4524 16.0173 13.0733 16.3964 13.0733 16.864V28.1533C13.0733 28.6209 13.4524 29 13.92 29H24.0803C24.5479 29 24.927 28.6209 24.927 28.1533V17.6434L24.9341 17.6463C25.04 17.6902 25.1497 17.711 25.2577 17.711C25.59 17.711 25.9053 17.5142 26.0403 17.1881C26.2192 16.7561 26.0141 16.2607 25.5821 16.0818ZM16.9774 12.5176L17.6254 10.9532L22.3188 12.8972L21.6708 14.4617L19.3241 13.4897L16.9774 12.5176Z" fill="white"/>
</svg>
