<svg width="25" height="25" viewBox="0 0 25 25" fill="none" xmlns="http://www.w3.org/2000/svg">
<circle cx="12.5" cy="12.5" r="12.5" fill="#0DAC86"/>
<path d="M18.3334 12.4998C18.3334 15.7215 15.7217 18.3332 12.5 18.3332C9.27836 18.3332 6.66669 15.7215 6.66669 12.4998C6.66669 9.27818 9.27836 6.6665 12.5 6.6665C15.7217 6.6665 18.3334 9.27818 18.3334 12.4998Z" stroke="white" stroke-width="1.5"/>
<path d="M18.3333 12.5H20" stroke="white" stroke-width="1.5" stroke-linecap="round" stroke-linejoin="round"/>
<path d="M5 12.5H6.66667" stroke="white" stroke-width="1.5" stroke-linecap="round" stroke-linejoin="round"/>
<path d="M12.5 18.3335V20.0002" stroke="white" stroke-width="1.5" stroke-linecap="round" stroke-linejoin="round"/>
<path d="M12.5 5V6.66667" stroke="white" stroke-width="1.5" stroke-linecap="round" stroke-linejoin="round"/>
<path d="M15 12.5C15 13.8808 13.8808 15 12.5 15C11.1193 15 10 13.8808 10 12.5C10 11.1193 11.1193 10 12.5 10C13.8808 10 15 11.1193 15 12.5Z" stroke="white" stroke-width="1.5"/>
</svg>
