<svg width="29" height="29" viewBox="0 0 29 29" fill="none" xmlns="http://www.w3.org/2000/svg">
<circle cx="14.5" cy="14.5" r="14.5" fill="#0DAC86"/>
<path fill-rule="evenodd" clip-rule="evenodd" d="M15 21C15 20.6318 15.2985 20.3333 15.6667 20.3333H21C21.3682 20.3333 21.6667 20.6318 21.6667 21C21.6667 21.3682 21.3682 21.6667 21 21.6667H15.6667C15.2985 21.6667 15 21.3682 15 21Z" fill="white"/>
<path fill-rule="evenodd" clip-rule="evenodd" d="M20.8491 12.4C21.9223 11.3225 21.8767 9.90768 21.0753 9.04122C20.6845 8.61873 20.1284 8.34887 19.4985 8.33399C18.8662 8.31905 18.2111 8.56085 17.6067 9.06657C17.5912 9.0795 17.5763 9.09313 17.5621 9.10741L8.91631 17.7877C8.54295 18.1625 8.33333 18.6701 8.33333 19.1991V20.3281C8.33333 21.0625 8.92798 21.6667 9.66922 21.6667H10.7884C11.3202 21.6667 11.8302 21.4549 12.2055 21.0781L20.8491 12.4ZM18.4714 10.862C18.2111 10.6016 17.7889 10.6016 17.5286 10.862C17.2683 11.1223 17.2683 11.5444 17.5286 11.8048L18.1953 12.4714C18.4556 12.7318 18.8777 12.7318 19.1381 12.4714C19.3984 12.2111 19.3984 11.789 19.1381 11.5286L18.4714 10.862Z" fill="white"/>
</svg>
