<svg width="18" height="18" viewBox="0 0 18 18" fill="none" xmlns="http://www.w3.org/2000/svg">
<path d="M1.73078 4.79614C2.15385 5.01921 8.03065 8.22299 8.24988 8.33837C8.4691 8.45376 8.69218 8.5076 9.03832 8.5076C9.38447 8.5076 9.60754 8.45376 9.82677 8.33837C10.046 8.22299 15.9228 5.01921 16.3459 4.79614C16.5036 4.71537 16.7689 4.56922 16.8266 4.40384C16.9266 4.11154 16.8189 4 16.392 4H9.03832H1.68463C1.25771 4 1.15002 4.11538 1.25002 4.40384C1.30771 4.57307 1.57309 4.71537 1.73078 4.79614Z" fill="#034C8E"/>
<path d="M16.6804 4.96929C16.3651 5.13083 13.5344 7.14617 11.6613 8.35769L14.8228 11.9153C14.8997 11.9922 14.9343 12.0845 14.892 12.1307C14.8459 12.173 14.7459 12.1499 14.6651 12.0768L10.8729 8.87691C10.2998 9.24613 9.89597 9.49997 9.82674 9.53843C9.53059 9.68843 9.32291 9.70766 9.0383 9.70766C8.75369 9.70766 8.546 9.68843 8.24985 9.53843C8.17678 9.49997 7.77678 9.24613 7.20372 8.87691L3.41149 12.0768C3.33457 12.1538 3.23072 12.1768 3.18457 12.1307C3.13842 12.0884 3.17303 11.9922 3.24995 11.9153L6.40758 8.35769C4.53454 7.14617 1.67306 5.13083 1.35768 4.96929C1.01923 4.79622 1 5.00006 1 5.15775C1 5.31544 1 13.0422 1 13.0422C1 13.3999 1.52691 13.846 1.90383 13.846H9.0383H16.1728C16.5497 13.846 16.9997 13.396 16.9997 13.0422C16.9997 13.0422 16.9997 5.3116 16.9997 5.15775C16.9997 4.99622 17.0228 4.79622 16.6804 4.96929Z" fill="#034C8E"/>
</svg>
