<svg width="16" height="18" viewBox="0 0 16 18" fill="none" xmlns="http://www.w3.org/2000/svg">
<path d="M15.1429 13.7143H14.2857V10.2857C14.2857 6.97726 11.5938 4.28571 8.28573 4.28571C4.97769 4.28571 2.28573 6.97726 2.28573 10.2857V13.7143H1.42858C0.954812 13.7143 0.571442 14.0981 0.571442 14.5714V17.1429C0.571442 17.6162 0.954812 18 1.42858 18H11.7143C12.1881 18 12.5714 17.6162 12.5714 17.1429C12.5714 16.7742 12.3363 16.4663 12.0096 16.3453L12.9264 15.4286H14.2857V17.1429C14.2857 17.6162 14.6691 18 15.1429 18C15.6166 18 16 17.6162 16 17.1429V14.5714C16 14.0981 15.6166 13.7143 15.1429 13.7143ZM4.00001 10.2857C4.00001 7.92271 5.92273 6 8.28573 6C10.6487 6 12.5714 7.92271 12.5714 10.2857V13.7143H4.00001V10.2857ZM2.28573 15.4286H3.14287H4.50225L3.6451 16.2857H2.28573V15.4286ZM9.6451 16.2857H6.06921L6.92635 15.4286H10.5022L9.6451 16.2857ZM4.00001 2.57143V0.857143C4.00001 0.383789 4.38338 0 4.85716 0C5.33093 0 5.7143 0.383789 5.7143 0.857143V2.57143C5.7143 3.04478 5.33093 3.42857 4.85716 3.42857C4.38338 3.42857 4.00001 3.04478 4.00001 2.57143ZM10.8572 2.57143V0.857143C10.8572 0.383789 11.2405 0 11.7143 0C12.1881 0 12.5714 0.383789 12.5714 0.857143V2.57143C12.5714 3.04478 12.1881 3.42857 11.7143 3.42857C11.2405 3.42857 10.8572 3.04478 10.8572 2.57143ZM7.42858 2.57143C7.42858 2.09802 7.81232 1.71429 8.28573 1.71429C8.75913 1.71429 9.14287 2.09802 9.14287 2.57143C9.14287 3.04478 8.75913 3.42857 8.28573 3.42857C7.81232 3.42857 7.42858 3.04478 7.42858 2.57143Z" fill="#FF1C1D"/>
</svg>
