<svg width="44" height="44" viewBox="0 0 44 44" fill="none" xmlns="http://www.w3.org/2000/svg">
<path d="M22 0C9.86921 0 0 9.86921 0 22C0 34.1308 9.86921 44 22 44C34.1308 44 44 34.1308 44 22C44 9.86921 34.1309 0 22 0ZM22 41.6216C16.6104 41.6216 11.7218 39.437 8.17207 35.9075C6.75454 34.498 5.55121 32.8735 4.61427 31.0882C3.18737 28.3695 2.37841 25.2776 2.37841 22C2.37841 11.1806 11.1806 2.37841 22 2.37841C27.1319 2.37841 31.809 4.35963 35.3091 7.59635C37.1239 9.27431 38.6224 11.2894 39.703 13.5418C40.9323 16.1044 41.6216 18.9732 41.6216 22C41.6216 32.8194 32.8194 41.6216 22 41.6216ZM13.6955 41.0862C13.7312 41.1018 13.7668 41.1177 13.8028 41.1331C13.7668 41.1175 13.7312 41.1018 13.6955 41.0862Z" fill="#FD191A"/>
<path d="M14.6416 19.6216C15.9552 19.6216 17.02 18.5567 17.02 17.2432C17.02 15.9296 15.9552 14.8648 14.6416 14.8648C13.328 14.8648 12.2632 15.9296 12.2632 17.2432C12.2632 18.5567 13.328 19.6216 14.6416 19.6216Z" fill="#FD191A"/>
<path d="M29.3579 19.6216C30.6715 19.6216 31.7363 18.5567 31.7363 17.2432C31.7363 15.9296 30.6715 14.8648 29.3579 14.8648C28.0443 14.8648 26.9795 15.9296 26.9795 17.2432C26.9795 18.5567 28.0443 19.6216 29.3579 19.6216Z" fill="#FD191A"/>
<path d="M35.017 11.3023L27.4849 8.04027L26.5397 10.2227L34.0718 13.4848L35.017 11.3023Z" fill="#FD191A"/>
<path d="M9.9275 13.4857L17.4595 10.2237L16.5143 8.04123L8.98232 11.3032L9.9275 13.4857Z" fill="#FD191A"/>
<path d="M31.848 30.1438C32.0305 30.4673 32.1985 30.8035 32.3479 31.1434L34.5253 30.1866C34.3443 29.7747 34.1405 29.3671 33.9196 28.9754C31.3892 24.4878 26.4265 21.7596 21.2822 22.0269C16.1711 22.2914 11.5362 25.4942 9.47412 30.1866L11.6516 31.1437C13.3552 27.2668 17.1836 24.6207 21.405 24.4022C25.6543 24.1817 29.7571 26.4356 31.848 30.1438Z" fill="#FD191A"/>
</svg>
