<svg width="33" height="33" viewBox="0 0 33 33" fill="none" xmlns="http://www.w3.org/2000/svg">
<path fill-rule="evenodd" clip-rule="evenodd" d="M20.625 14.4375C21.6615 14.4373 22.6702 14.1027 23.5013 13.4834C24.3325 12.8641 24.9416 11.9931 25.2381 11H28.875C29.2397 11 29.5894 10.8551 29.8473 10.5972C30.1051 10.3394 30.25 9.98963 30.25 9.62496C30.25 9.26029 30.1051 8.91055 29.8473 8.65269C29.5894 8.39483 29.2397 8.24996 28.875 8.24996H25.2381C24.9411 7.25732 24.3318 6.38697 23.5007 5.76818C22.6696 5.1494 21.6611 4.81519 20.625 4.81519C19.5889 4.81519 18.5804 5.1494 17.7493 5.76818C16.9182 6.38697 16.3089 7.25732 16.0119 8.24996H4.125C3.76033 8.24996 3.41059 8.39483 3.15273 8.65269C2.89487 8.91055 2.75 9.26029 2.75 9.62496C2.75 9.98963 2.89487 10.3394 3.15273 10.5972C3.41059 10.8551 3.76033 11 4.125 11H16.0119C16.3084 11.9931 16.9175 12.8641 17.7486 13.4834C18.5798 14.1027 19.5885 14.4373 20.625 14.4375ZM4.125 22C3.76033 22 3.41059 22.1448 3.15273 22.4027C2.89487 22.6606 2.75 23.0103 2.75 23.375C2.75 23.7396 2.89487 24.0894 3.15273 24.3472C3.41059 24.6051 3.76033 24.75 4.125 24.75H7.07437C7.37142 25.7426 7.98073 26.613 8.8118 27.2317C9.64287 27.8505 10.6514 28.1847 11.6875 28.1847C12.7236 28.1847 13.7321 27.8505 14.5632 27.2317C15.3943 26.613 16.0036 25.7426 16.3006 24.75H28.875C29.2397 24.75 29.5894 24.6051 29.8473 24.3472C30.1051 24.0894 30.25 23.7396 30.25 23.375C30.25 23.0103 30.1051 22.6606 29.8473 22.4027C29.5894 22.1448 29.2397 22 28.875 22H16.3006C16.0036 21.0073 15.3943 20.137 14.5632 19.5182C13.7321 18.8994 12.7236 18.5652 11.6875 18.5652C10.6514 18.5652 9.64287 18.8994 8.8118 19.5182C7.98073 20.137 7.37142 21.0073 7.07437 22H4.125Z" fill="#FD191A"/>
</svg>
