<svg width="30" height="30" viewBox="0 0 30 30" fill="none" xmlns="http://www.w3.org/2000/svg">
<path fill-rule="evenodd" clip-rule="evenodd" d="M18.75 13.125C19.6923 13.1248 20.6093 12.8206 21.3649 12.2576C22.1204 11.6946 22.6741 10.9028 22.9437 9.99996H26.25C26.5815 9.99996 26.8995 9.86827 27.1339 9.63385C27.3683 9.39943 27.5 9.08149 27.5 8.74996C27.5 8.41844 27.3683 8.1005 27.1339 7.86608C26.8995 7.63166 26.5815 7.49996 26.25 7.49996H22.9437C22.6737 6.59756 22.1198 5.80634 21.3643 5.2438C20.6088 4.68127 19.6919 4.37744 18.75 4.37744C17.8081 4.37744 16.8912 4.68127 16.1357 5.2438C15.3802 5.80634 14.8263 6.59756 14.5562 7.49996H3.75C3.41848 7.49996 3.10054 7.63166 2.86612 7.86608C2.6317 8.1005 2.5 8.41844 2.5 8.74996C2.5 9.08149 2.6317 9.39943 2.86612 9.63385C3.10054 9.86827 3.41848 9.99996 3.75 9.99996H14.5562C14.8258 10.9028 15.3796 11.6946 16.1351 12.2576C16.8907 12.8206 17.8077 13.1248 18.75 13.125ZM3.75 20C3.41848 20 3.10054 20.1317 2.86612 20.3661C2.6317 20.6005 2.5 20.9184 2.5 21.25C2.5 21.5815 2.6317 21.8994 2.86612 22.1338C3.10054 22.3683 3.41848 22.5 3.75 22.5H6.43125C6.70129 23.4024 7.25521 24.1936 8.01073 24.7561C8.76624 25.3187 9.68306 25.6225 10.625 25.6225C11.5669 25.6225 12.4838 25.3187 13.2393 24.7561C13.9948 24.1936 14.5487 23.4024 14.8187 22.5H26.25C26.5815 22.5 26.8995 22.3683 27.1339 22.1338C27.3683 21.8994 27.5 21.5815 27.5 21.25C27.5 20.9184 27.3683 20.6005 27.1339 20.3661C26.8995 20.1317 26.5815 20 26.25 20H14.8187C14.5487 19.0976 13.9948 18.3063 13.2393 17.7438C12.4838 17.1813 11.5669 16.8774 10.625 16.8774C9.68306 16.8774 8.76624 17.1813 8.01073 17.7438C7.25521 18.3063 6.70129 19.0976 6.43125 20H3.75Z" fill="white"/>
</svg>
