<svg width="31" height="21" viewBox="0 0 31 21" fill="none" xmlns="http://www.w3.org/2000/svg">
<path d="M28.6783 0.276001H2.32167C1.03941 0.276001 0 1.31541 0 2.59767V18.2647C0 19.5469 1.03941 20.5864 2.32167 20.5864H28.6783C29.9605 20.5864 31 19.547 31 18.2647V2.59767C31 1.31541 29.9606 0.276001 28.6783 0.276001Z" fill="#F5F5F5"/>
<path d="M0.127686 1.83835H30.8722C30.5576 0.92912 29.6945 0.276001 28.6783 0.276001H2.32166C1.30544 0.276001 0.442348 0.92912 0.127686 1.83835Z" fill="#FF4B55"/>
<path d="M31 6.52521H0V8.0875H31V6.52521Z" fill="#FF4B55"/>
<path d="M31 3.40045H0V4.96274H31V3.40045Z" fill="#FF4B55"/>
<path d="M0 10.6778C0 10.973 0.239342 11.2123 0.534508 11.2123H31V9.64996H0V10.6778Z" fill="#FF4B55"/>
<path d="M31 15.8997H0V17.4621H31V15.8997Z" fill="#FF4B55"/>
<path d="M30.8723 19.0239H0.127686C0.442348 19.9332 1.3055 20.5863 2.32166 20.5863H28.6783C29.6945 20.5863 30.5576 19.9332 30.8723 19.0239Z" fill="#FF4B55"/>
<path d="M31 12.7749H0V14.3372H31V12.7749Z" fill="#FF4B55"/>
<path d="M0.534508 11.2123H13.8966C14.1918 11.2123 14.4311 10.9729 14.4311 10.6778V0.810386C14.4311 0.51516 14.1918 0.275879 13.8966 0.275879H2.32167C1.03941 0.275939 0 1.31535 0 2.59761V10.6778C0 10.973 0.239342 11.2123 0.534508 11.2123Z" fill="#41479B"/>
<path d="M1.50098 1.50278L1.61929 1.85759L1.99329 1.86043C2.04172 1.86086 2.06177 1.92261 2.02283 1.95137L1.72198 2.17352L1.83484 2.53008C1.84949 2.57622 1.79687 2.61448 1.75746 2.58627L1.45321 2.36884L1.14896 2.58633C1.10955 2.61454 1.05705 2.57628 1.07158 2.53014L1.18444 2.17358L0.883584 1.95143C0.844653 1.92261 0.864694 1.86086 0.913131 1.86049L1.28713 1.85765L1.40544 1.50284C1.4207 1.45683 1.4856 1.45683 1.50098 1.50278Z" fill="#F5F5F5"/>
<path d="M1.50098 3.35869L1.61929 3.7135L1.99329 3.71634C2.04172 3.71677 2.06177 3.77847 2.02283 3.80729L1.72198 4.02949L1.83484 4.38605C1.84949 4.43219 1.79687 4.47046 1.75746 4.44224L1.45321 4.22482L1.14896 4.4423C1.10955 4.47045 1.05705 4.43225 1.07158 4.38611L1.18444 4.02955L0.883584 3.80735C0.844653 3.77853 0.864694 3.71683 0.913131 3.7164L1.28713 3.71356L1.40544 3.35875C1.4207 3.3128 1.4856 3.3128 1.50098 3.35869Z" fill="#F5F5F5"/>
<path d="M1.50098 5.21476L1.61929 5.56956L1.99329 5.57241C2.04172 5.57283 2.06177 5.63453 2.02283 5.66335L1.72198 5.88556L1.83484 6.24212C1.84949 6.28825 1.79687 6.32652 1.75746 6.2983L1.45321 6.08088L1.14896 6.29836C1.10955 6.32652 1.05705 6.28837 1.07158 6.24218L1.18444 5.88562L0.883584 5.66341C0.844653 5.63459 0.864694 5.57289 0.913131 5.57247L1.28713 5.56962L1.40544 5.21482C1.4207 5.1688 1.4856 5.1688 1.50098 5.21476Z" fill="#F5F5F5"/>
<path d="M1.50098 7.07071L1.61929 7.42552L1.99329 7.42836C2.04172 7.42879 2.06177 7.49055 2.02283 7.5193L1.72198 7.74151L1.83484 8.09807C1.84949 8.14421 1.79687 8.18247 1.75746 8.15426L1.45321 7.93684L1.14896 8.15432C1.10955 8.18248 1.05705 8.14427 1.07158 8.09813L1.18444 7.74157L0.883584 7.51937C0.844653 7.49067 0.864694 7.42885 0.913131 7.42842L1.28713 7.42558L1.40544 7.07077C1.4207 7.02476 1.4856 7.02476 1.50098 7.07071Z" fill="#F5F5F5"/>
<path d="M1.50098 8.92681L1.61929 9.28161L1.99329 9.28446C2.04172 9.28488 2.06177 9.34658 2.02283 9.3754L1.72198 9.59761L1.83484 9.95417C1.84949 10.0003 1.79687 10.0386 1.75746 10.0104L1.45321 9.79293L1.14896 10.0104C1.10955 10.0386 1.05705 10.0004 1.07158 9.95423L1.18444 9.59767L0.883584 9.37546C0.844653 9.34664 0.864694 9.28494 0.913131 9.28452L1.28713 9.28167L1.40544 8.92687C1.4207 8.88091 1.4856 8.88091 1.50098 8.92681Z" fill="#F5F5F5"/>
<path d="M2.94153 2.41266L3.05984 2.76746L3.43384 2.77031C3.48228 2.77073 3.50232 2.83249 3.46339 2.86125L3.16253 3.08345L3.27539 3.44001C3.29004 3.48615 3.23743 3.52442 3.19801 3.4962L2.89376 3.27872L2.58951 3.4962C2.5501 3.52436 2.4976 3.48615 2.51213 3.44001L2.62499 3.08345L2.32414 2.86125C2.2852 2.83243 2.30525 2.77073 2.35368 2.77031L2.72768 2.76746L2.84599 2.41266C2.86125 2.36676 2.92621 2.36676 2.94153 2.41266Z" fill="#F5F5F5"/>
<path d="M2.94153 4.26872L3.05984 4.62352L3.43384 4.62637C3.48228 4.62679 3.50232 4.68855 3.46339 4.71731L3.16253 4.93952L3.27539 5.29608C3.29004 5.34222 3.23743 5.38048 3.19801 5.35227L2.89376 5.13478L2.58951 5.35227C2.5501 5.38042 2.4976 5.34228 2.51213 5.29608L2.62499 4.93952L2.32414 4.71731C2.2852 4.68861 2.30525 4.62679 2.35368 4.62637L2.72768 4.62352L2.84599 4.26872C2.86125 4.22276 2.92621 4.22276 2.94153 4.26872Z" fill="#F5F5F5"/>
<path d="M2.94153 6.12468L3.05984 6.47948L3.43384 6.48233C3.48228 6.48275 3.50232 6.54445 3.46339 6.57327L3.16253 6.79547L3.27539 7.15204C3.29004 7.19817 3.23743 7.23644 3.19801 7.20822L2.89376 6.99074L2.58951 7.20822C2.5501 7.23638 2.4976 7.19817 2.51213 7.15204L2.62499 6.79547L2.32414 6.57327C2.2852 6.54445 2.30525 6.48275 2.35368 6.48233L2.72768 6.47948L2.84599 6.12468C2.86125 6.07872 2.92621 6.07872 2.94153 6.12468Z" fill="#F5F5F5"/>
<path d="M2.94153 7.98071L3.05984 8.33551L3.43384 8.33836C3.48228 8.33878 3.50232 8.40048 3.46339 8.4293L3.16253 8.65151L3.27539 9.00807C3.29004 9.05421 3.23743 9.09247 3.19801 9.06426L2.89376 8.84677L2.58951 9.06426C2.5501 9.09247 2.4976 9.05421 2.51213 9.00807L2.62499 8.65151L2.32414 8.4293C2.2852 8.40048 2.30525 8.33878 2.35368 8.33836L2.72768 8.33551L2.84599 7.98071C2.86125 7.93482 2.92621 7.93482 2.94153 7.98071Z" fill="#F5F5F5"/>
<path d="M4.38208 1.50267L4.50039 1.85747L4.87439 1.86032C4.92283 1.86074 4.94287 1.9225 4.90394 1.95126L4.60308 2.17341L4.71594 2.52997C4.73059 2.5761 4.67798 2.61437 4.63856 2.58615L4.33431 2.36867L4.03006 2.58615C3.99065 2.61437 3.93815 2.5761 3.95269 2.52997L4.06555 2.17341L3.76469 1.95126C3.72576 1.92244 3.7458 1.86068 3.79423 1.86032L4.16823 1.85747L4.28654 1.50267C4.3018 1.45671 4.36677 1.45671 4.38208 1.50267Z" fill="#F5F5F5"/>
<path d="M4.38208 3.3587L4.50039 3.71351L4.87439 3.71635C4.92283 3.71678 4.94287 3.77847 4.90394 3.80729L4.60308 4.0295L4.71594 4.38606C4.73059 4.4322 4.67798 4.47046 4.63856 4.44225L4.33431 4.22476L4.03006 4.44225C3.99065 4.4704 3.93815 4.4322 3.95269 4.38606L4.06555 4.0295L3.76469 3.80729C3.72576 3.77847 3.7458 3.71678 3.79423 3.71635L4.16823 3.71351L4.28654 3.3587C4.3018 3.31281 4.36677 3.31281 4.38208 3.3587Z" fill="#F5F5F5"/>
<path d="M4.38208 5.21476L4.50039 5.56957L4.87439 5.57242C4.92283 5.57284 4.94287 5.63454 4.90394 5.66336L4.60308 5.88556L4.71594 6.24212C4.73059 6.28826 4.67798 6.32653 4.63856 6.29831L4.33431 6.08083L4.03006 6.29831C3.99065 6.32647 3.93815 6.28832 3.95269 6.24212L4.06555 5.88556L3.76469 5.66336C3.72576 5.63454 3.7458 5.57284 3.79423 5.57242L4.16823 5.56957L4.28654 5.21476C4.3018 5.16881 4.36677 5.16881 4.38208 5.21476Z" fill="#F5F5F5"/>
<path d="M4.38208 7.07072L4.50039 7.42553L4.87439 7.42837C4.92283 7.4288 4.94287 7.49055 4.90394 7.51931L4.60308 7.74152L4.71594 8.09808C4.73059 8.14422 4.67798 8.18248 4.63856 8.15427L4.33431 7.93678L4.03006 8.15427C3.99065 8.18242 3.93815 8.14422 3.95269 8.09808L4.06555 7.74152L3.76469 7.51931C3.72576 7.49061 3.7458 7.4288 3.79423 7.42837L4.16823 7.42553L4.28654 7.07072C4.3018 7.02477 4.36677 7.02477 4.38208 7.07072Z" fill="#F5F5F5"/>
<path d="M4.38208 8.92675L4.50039 9.28156L4.87439 9.28441C4.92283 9.28483 4.94287 9.34653 4.90394 9.37535L4.60308 9.59755L4.71594 9.95411C4.73059 10.0003 4.67798 10.0385 4.63856 10.0103L4.33431 9.79282L4.03006 10.0103C3.99065 10.0385 3.93815 10.0003 3.95269 9.95411L4.06555 9.59755L3.76469 9.37535C3.72576 9.34653 3.7458 9.28483 3.79423 9.28441L4.16823 9.28156L4.28654 8.92675C4.3018 8.88086 4.36677 8.88086 4.38208 8.92675Z" fill="#F5F5F5"/>
<path d="M5.82276 2.41266L5.94107 2.76746L6.31507 2.77031C6.3635 2.77073 6.38354 2.83249 6.34461 2.86125L6.04375 3.08345L6.15661 3.44001C6.17127 3.48615 6.11865 3.52442 6.07923 3.4962L5.77499 3.27872L5.47074 3.4962C5.43132 3.52436 5.37883 3.48615 5.39336 3.44001L5.50622 3.08345L5.20536 2.86125C5.16643 2.83243 5.18647 2.77073 5.23491 2.77031L5.60891 2.76746L5.72722 2.41266C5.74241 2.36676 5.80744 2.36676 5.82276 2.41266Z" fill="#F5F5F5"/>
<path d="M5.82276 4.26872L5.94107 4.62352L6.31507 4.62637C6.3635 4.62679 6.38354 4.68855 6.34461 4.71731L6.04375 4.93952L6.15661 5.29608C6.17127 5.34222 6.11865 5.38048 6.07923 5.35227L5.77499 5.13478L5.47074 5.35227C5.43132 5.38042 5.37883 5.34228 5.39336 5.29608L5.50622 4.93952L5.20536 4.71731C5.16643 4.68861 5.18647 4.62679 5.23491 4.62637L5.60891 4.62352L5.72722 4.26872C5.74241 4.22276 5.80744 4.22276 5.82276 4.26872Z" fill="#F5F5F5"/>
<path d="M5.82276 6.12468L5.94107 6.47948L6.31507 6.48233C6.3635 6.48275 6.38354 6.54445 6.34461 6.57327L6.04375 6.79547L6.15661 7.15204C6.17127 7.19817 6.11865 7.23644 6.07923 7.20822L5.77499 6.99074L5.47074 7.20822C5.43132 7.23638 5.37883 7.19817 5.39336 7.15204L5.50622 6.79547L5.20536 6.57327C5.16643 6.54445 5.18647 6.48275 5.23491 6.48233L5.60891 6.47948L5.72722 6.12468C5.74241 6.07872 5.80744 6.07872 5.82276 6.12468Z" fill="#F5F5F5"/>
<path d="M5.82276 7.98071L5.94107 8.33551L6.31507 8.33836C6.3635 8.33878 6.38354 8.40048 6.34461 8.4293L6.04375 8.65151L6.15661 9.00807C6.17127 9.05421 6.11865 9.09247 6.07923 9.06426L5.77499 8.84677L5.47074 9.06426C5.43132 9.09247 5.37883 9.05421 5.39336 9.00807L5.50622 8.65151L5.20536 8.4293C5.16643 8.40048 5.18647 8.33878 5.23491 8.33836L5.60891 8.33551L5.72722 7.98071C5.74241 7.93482 5.80744 7.93482 5.82276 7.98071Z" fill="#F5F5F5"/>
<path d="M7.26325 1.50266L7.38156 1.85746L7.75556 1.86031C7.80399 1.86073 7.82403 1.92249 7.7851 1.95125L7.48424 2.1734L7.5971 2.52996C7.61176 2.57609 7.55914 2.61436 7.51972 2.58615L7.21542 2.36872L6.91117 2.58621C6.87175 2.61442 6.81926 2.57616 6.83379 2.53002L6.94665 2.17346L6.64579 1.95131C6.60686 1.92249 6.6269 1.86073 6.67534 1.86037L7.04934 1.85752L7.16764 1.50272C7.18296 1.4567 7.24793 1.4567 7.26325 1.50266Z" fill="#F5F5F5"/>
<path d="M7.26325 3.3587L7.38156 3.71351L7.75556 3.71635C7.80399 3.71678 7.82403 3.77847 7.7851 3.80729L7.48424 4.0295L7.5971 4.38606C7.61176 4.4322 7.55914 4.47046 7.51972 4.44225L7.21542 4.22476L6.91117 4.44225C6.87175 4.4704 6.81926 4.4322 6.83379 4.38606L6.94665 4.0295L6.64579 3.80729C6.60686 3.77847 6.6269 3.71678 6.67534 3.71635L7.04934 3.71351L7.16764 3.3587C7.18296 3.31281 7.24793 3.31281 7.26325 3.3587Z" fill="#F5F5F5"/>
<path d="M7.26325 5.21477L7.38156 5.56958L7.75556 5.57242C7.80399 5.57285 7.82403 5.63454 7.7851 5.66336L7.48424 5.88557L7.5971 6.24213C7.61176 6.28827 7.55914 6.32653 7.51972 6.29832L7.21542 6.08077L6.91117 6.29826C6.87175 6.32641 6.81926 6.28821 6.83379 6.24207L6.94665 5.88551L6.64579 5.6633C6.60686 5.63448 6.6269 5.57279 6.67534 5.57236L7.04934 5.56952L7.16764 5.21471C7.18296 5.16882 7.24793 5.16882 7.26325 5.21477Z" fill="#F5F5F5"/>
<path d="M7.26325 7.07072L7.38156 7.42553L7.75556 7.42837C7.80399 7.4288 7.82403 7.49055 7.7851 7.51931L7.48424 7.74152L7.5971 8.09808C7.61176 8.14422 7.55914 8.18248 7.51972 8.15427L7.21542 7.93678L6.91117 8.15427C6.87175 8.18242 6.81926 8.14422 6.83379 8.09808L6.94665 7.74152L6.64579 7.51931C6.60686 7.49061 6.6269 7.4288 6.67534 7.42837L7.04934 7.42553L7.16764 7.07072C7.18296 7.02477 7.24793 7.02477 7.26325 7.07072Z" fill="#F5F5F5"/>
<path d="M7.26325 8.92675L7.38156 9.28156L7.75556 9.28441C7.80399 9.28483 7.82403 9.34653 7.7851 9.37535L7.48424 9.59755L7.5971 9.95411C7.61176 10.0003 7.55914 10.0385 7.51972 10.0103L7.21542 9.79282L6.91117 10.0103C6.87175 10.0385 6.81926 10.0003 6.83379 9.95411L6.94665 9.59755L6.64579 9.37535C6.60686 9.34653 6.6269 9.28483 6.67534 9.28441L7.04934 9.28156L7.16764 8.92675C7.18296 8.88086 7.24793 8.88086 7.26325 8.92675Z" fill="#F5F5F5"/>
<path d="M8.70386 2.41266L8.82217 2.76746L9.19617 2.77031C9.24461 2.77073 9.26465 2.83249 9.22571 2.86125L8.92486 3.08345L9.03772 3.44001C9.05237 3.48615 8.99975 3.52442 8.96034 3.4962L8.65609 3.27872L8.35184 3.4962C8.31243 3.52436 8.25993 3.48615 8.27446 3.44001L8.38732 3.08345L8.08646 2.86125C8.04753 2.83243 8.06757 2.77073 8.11601 2.77031L8.49001 2.76746L8.60832 2.41266C8.62364 2.36676 8.68854 2.36676 8.70386 2.41266Z" fill="#F5F5F5"/>
<path d="M8.70386 4.26872L8.82217 4.62352L9.19617 4.62637C9.24461 4.62679 9.26465 4.68855 9.22571 4.71731L8.92486 4.93952L9.03772 5.29608C9.05237 5.34222 8.99975 5.38048 8.96034 5.35227L8.65609 5.13478L8.35184 5.35227C8.31243 5.38042 8.25993 5.34228 8.27446 5.29608L8.38732 4.93952L8.08646 4.71731C8.04753 4.68861 8.06757 4.62679 8.11601 4.62637L8.49001 4.62352L8.60832 4.26872C8.62364 4.22276 8.68854 4.22276 8.70386 4.26872Z" fill="#F5F5F5"/>
<path d="M8.70386 6.12468L8.82217 6.47948L9.19617 6.48233C9.24461 6.48275 9.26465 6.54445 9.22571 6.57327L8.92486 6.79547L9.03772 7.15204C9.05237 7.19817 8.99975 7.23644 8.96034 7.20822L8.65609 6.99074L8.35184 7.20822C8.31243 7.23638 8.25993 7.19817 8.27446 7.15204L8.38732 6.79547L8.08646 6.57327C8.04753 6.54445 8.06757 6.48275 8.11601 6.48233L8.49001 6.47948L8.60832 6.12468C8.62364 6.07872 8.68854 6.07872 8.70386 6.12468Z" fill="#F5F5F5"/>
<path d="M8.70386 7.98071L8.82217 8.33551L9.19617 8.33836C9.24461 8.33878 9.26465 8.40048 9.22571 8.4293L8.92486 8.65151L9.03772 9.00807C9.05237 9.05421 8.99975 9.09247 8.96034 9.06426L8.65609 8.84677L8.35184 9.06426C8.31243 9.09247 8.25993 9.05421 8.27446 9.00807L8.38732 8.65151L8.08646 8.4293C8.04753 8.40048 8.06757 8.33878 8.11601 8.33836L8.49001 8.33551L8.60832 7.98071C8.62364 7.93482 8.68854 7.93482 8.70386 7.98071Z" fill="#F5F5F5"/>
<path d="M10.1447 1.50267L10.263 1.85747L10.637 1.86032C10.6854 1.86074 10.7054 1.9225 10.6665 1.95126L10.3657 2.17341L10.4785 2.52997C10.4932 2.5761 10.4406 2.61437 10.4011 2.58615L10.0969 2.36867L9.79264 2.58615C9.75322 2.61437 9.70073 2.5761 9.71526 2.52997L9.82812 2.17341L9.52726 1.95126C9.48833 1.92244 9.50837 1.86068 9.55681 1.86032L9.93081 1.85747L10.0491 1.50267C10.0643 1.45671 10.1293 1.45671 10.1447 1.50267Z" fill="#F5F5F5"/>
<path d="M10.1447 3.3587L10.263 3.71351L10.637 3.71635C10.6854 3.71678 10.7054 3.77847 10.6665 3.80729L10.3657 4.0295L10.4785 4.38606C10.4932 4.4322 10.4406 4.47046 10.4011 4.44225L10.0969 4.22476L9.79264 4.44225C9.75322 4.4704 9.70073 4.4322 9.71526 4.38606L9.82812 4.0295L9.52726 3.80729C9.48833 3.77847 9.50837 3.71678 9.55681 3.71635L9.93081 3.71351L10.0491 3.3587C10.0643 3.31281 10.1293 3.31281 10.1447 3.3587Z" fill="#F5F5F5"/>
<path d="M10.1447 5.21476L10.263 5.56957L10.637 5.57242C10.6854 5.57284 10.7054 5.63454 10.6665 5.66336L10.3657 5.88556L10.4785 6.24212C10.4932 6.28826 10.4406 6.32653 10.4011 6.29831L10.0969 6.08083L9.79264 6.29831C9.75322 6.32647 9.70073 6.28832 9.71526 6.24212L9.82812 5.88556L9.52726 5.66336C9.48833 5.63454 9.50837 5.57284 9.55681 5.57242L9.93081 5.56957L10.0491 5.21476C10.0643 5.16881 10.1293 5.16881 10.1447 5.21476Z" fill="#F5F5F5"/>
<path d="M10.1447 7.07072L10.263 7.42553L10.637 7.42837C10.6854 7.4288 10.7054 7.49055 10.6665 7.51931L10.3657 7.74152L10.4785 8.09808C10.4932 8.14422 10.4406 8.18248 10.4011 8.15427L10.0969 7.93678L9.79264 8.15427C9.75322 8.18242 9.70073 8.14422 9.71526 8.09808L9.82812 7.74152L9.52726 7.51931C9.48833 7.49061 9.50837 7.4288 9.55681 7.42837L9.93081 7.42553L10.0491 7.07072C10.0643 7.02477 10.1293 7.02477 10.1447 7.07072Z" fill="#F5F5F5"/>
<path d="M10.1447 8.92675L10.263 9.28156L10.637 9.28441C10.6854 9.28483 10.7054 9.34653 10.6665 9.37535L10.3657 9.59755L10.4785 9.95411C10.4932 10.0003 10.4406 10.0385 10.4011 10.0103L10.0969 9.79282L9.79264 10.0103C9.75322 10.0385 9.70073 10.0003 9.71526 9.95411L9.82812 9.59755L9.52726 9.37535C9.48833 9.34653 9.50837 9.28483 9.55681 9.28441L9.93081 9.28156L10.0491 8.92675C10.0643 8.88086 10.1293 8.88086 10.1447 8.92675Z" fill="#F5F5F5"/>
<path d="M11.5851 2.41266L11.7034 2.76746L12.0774 2.77031C12.1258 2.77073 12.1459 2.83249 12.1069 2.86125L11.8061 3.08345L11.9189 3.44001C11.9336 3.48615 11.881 3.52442 11.8416 3.4962L11.5373 3.27872L11.2331 3.4962C11.1937 3.52436 11.1412 3.48615 11.1557 3.44001L11.2685 3.08345L10.9677 2.86125C10.9288 2.83243 10.9488 2.77073 10.9972 2.77031L11.3712 2.76746L11.4895 2.41266C11.5048 2.36676 11.5698 2.36676 11.5851 2.41266Z" fill="#F5F5F5"/>
<path d="M11.5851 4.26872L11.7034 4.62352L12.0774 4.62637C12.1258 4.62679 12.1459 4.68855 12.1069 4.71731L11.8061 4.93952L11.9189 5.29608C11.9336 5.34222 11.881 5.38048 11.8416 5.35227L11.5373 5.13478L11.2331 5.35227C11.1937 5.38042 11.1412 5.34228 11.1557 5.29608L11.2685 4.93952L10.9677 4.71731C10.9288 4.68861 10.9488 4.62679 10.9972 4.62637L11.3712 4.62352L11.4895 4.26872C11.5048 4.22276 11.5698 4.22276 11.5851 4.26872Z" fill="#F5F5F5"/>
<path d="M11.5851 6.12468L11.7034 6.47948L12.0774 6.48233C12.1258 6.48275 12.1459 6.54445 12.1069 6.57327L11.8061 6.79547L11.9189 7.15204C11.9336 7.19817 11.881 7.23644 11.8416 7.20822L11.5373 6.99074L11.2331 7.20822C11.1937 7.23638 11.1412 7.19817 11.1557 7.15204L11.2685 6.79547L10.9677 6.57327C10.9288 6.54445 10.9488 6.48275 10.9972 6.48233L11.3712 6.47948L11.4895 6.12468C11.5048 6.07872 11.5698 6.07872 11.5851 6.12468Z" fill="#F5F5F5"/>
<path d="M11.5851 7.98071L11.7034 8.33551L12.0774 8.33836C12.1258 8.33878 12.1459 8.40048 12.1069 8.4293L11.8061 8.65151L11.9189 9.00807C11.9336 9.05421 11.881 9.09247 11.8416 9.06426L11.5373 8.84677L11.2331 9.06426C11.1937 9.09247 11.1412 9.05421 11.1557 9.00807L11.2685 8.65151L10.9677 8.4293C10.9288 8.40048 10.9488 8.33878 10.9972 8.33836L11.3712 8.33551L11.4895 7.98071C11.5048 7.93482 11.5698 7.93482 11.5851 7.98071Z" fill="#F5F5F5"/>
<path d="M13.0259 1.50267L13.1442 1.85747L13.5182 1.86032C13.5666 1.86074 13.5867 1.9225 13.5477 1.95126L13.2469 2.17341L13.3597 2.52997C13.3744 2.5761 13.3218 2.61437 13.2824 2.58615L12.9781 2.36867L12.6739 2.58615C12.6344 2.61437 12.582 2.5761 12.5965 2.52997L12.7093 2.17341L12.4085 1.95126C12.3696 1.92244 12.3896 1.86068 12.438 1.86032L12.812 1.85747L12.9303 1.50267C12.9456 1.45671 13.0105 1.45671 13.0259 1.50267Z" fill="#F5F5F5"/>
<path d="M13.0259 3.3587L13.1442 3.71351L13.5182 3.71635C13.5666 3.71678 13.5867 3.77847 13.5477 3.80729L13.2469 4.0295L13.3597 4.38606C13.3744 4.4322 13.3218 4.47046 13.2824 4.44225L12.9781 4.22476L12.6739 4.44225C12.6344 4.4704 12.582 4.4322 12.5965 4.38606L12.7093 4.0295L12.4085 3.80729C12.3696 3.77847 12.3896 3.71678 12.438 3.71635L12.812 3.71351L12.9303 3.3587C12.9456 3.31281 13.0105 3.31281 13.0259 3.3587Z" fill="#F5F5F5"/>
<path d="M13.0259 5.21476L13.1442 5.56957L13.5182 5.57242C13.5666 5.57284 13.5867 5.63454 13.5477 5.66336L13.2469 5.88556L13.3597 6.24212C13.3744 6.28826 13.3218 6.32653 13.2824 6.29831L12.9781 6.08083L12.6739 6.29831C12.6344 6.32647 12.582 6.28832 12.5965 6.24212L12.7093 5.88556L12.4085 5.66336C12.3696 5.63454 12.3896 5.57284 12.438 5.57242L12.812 5.56957L12.9303 5.21476C12.9456 5.16881 13.0105 5.16881 13.0259 5.21476Z" fill="#F5F5F5"/>
<path d="M13.0259 7.07072L13.1442 7.42553L13.5182 7.42837C13.5666 7.4288 13.5867 7.49055 13.5477 7.51931L13.2469 7.74152L13.3597 8.09808C13.3744 8.14422 13.3218 8.18248 13.2824 8.15427L12.9781 7.93678L12.6739 8.15427C12.6344 8.18242 12.582 8.14422 12.5965 8.09808L12.7093 7.74152L12.4085 7.51931C12.3696 7.49061 12.3896 7.4288 12.438 7.42837L12.812 7.42553L12.9303 7.07072C12.9456 7.02477 13.0105 7.02477 13.0259 7.07072Z" fill="#F5F5F5"/>
<path d="M13.0259 8.92675L13.1442 9.28156L13.5182 9.28441C13.5666 9.28483 13.5867 9.34653 13.5477 9.37535L13.2469 9.59755L13.3597 9.95411C13.3744 10.0003 13.3218 10.0385 13.2824 10.0103L12.9781 9.79282L12.6739 10.0103C12.6344 10.0385 12.582 10.0003 12.5965 9.95411L12.7093 9.59755L12.4085 9.37535C12.3696 9.34653 12.3896 9.28483 12.438 9.28441L12.812 9.28156L12.9303 8.92675C12.9456 8.88086 13.0105 8.88086 13.0259 8.92675Z" fill="#F5F5F5"/>
</svg>
