<svg viewBox="0 0 19 18" xmlns="http://www.w3.org/2000/svg">
<path fill-rule="evenodd" clip-rule="evenodd" d="M16.1973 16H3.37562C1.86394 16 0.628113 14.6472 0.628113 12.979V6.93706V4.92186C0.628113 3.25365 1.86394 1.90088 3.37562 1.90088H16.1973C17.72 1.90088 18.9448 3.25365 18.9448 4.92186V12.979C18.9448 14.6472 17.72 16 16.1973 16ZM2.45985 5.92887V4.92185C2.45985 4.36617 2.87915 3.91483 3.37569 3.91483H16.1974C16.705 3.91483 17.1132 4.36617 17.1132 4.92185V5.92887H2.45985ZM2.45985 7.94406H17.1132V12.979C17.1132 13.5347 16.705 13.986 16.1974 13.986H3.37569C2.87915 13.986 2.45985 13.5347 2.45985 12.979V7.94406ZM3.37572 10.9651C3.37572 10.4082 3.79502 9.95806 4.29155 9.95806H7.9549C8.46247 9.95806 8.87074 10.4082 8.87074 10.9651C8.87074 11.5208 8.46247 11.9721 7.9549 11.9721H4.29155C3.79502 11.9721 3.37572 11.5208 3.37572 10.9651Z"/>
</svg>
