<svg viewBox="0 0 18 18" xmlns="http://www.w3.org/2000/svg">
<g clip-path="url(#clip0_5_188)">
<path d="M15.2747 0H2.72534C2.37534 0 2.09152 0.283758 2.09152 0.633818V17.3662C2.09152 17.7162 2.37528 18.0001 2.72534 18.0001H12.0634C12.2315 18.0001 12.3927 17.9333 12.5116 17.8144L15.7228 14.6032C15.8416 14.4843 15.9084 14.3232 15.9084 14.155V0.633818C15.9084 0.283758 15.6247 0 15.2747 0ZM3.35916 1.26758H14.6409V13.5211L12.0635 13.5212C11.7134 13.5212 11.4296 13.8049 11.4296 14.155V16.7324H3.35916V1.26758ZM12.6972 15.8361V14.7888L13.7445 14.7887L12.6972 15.8361Z"/>
<path d="M7.36795 4.4049H12.5968C12.9468 4.4049 13.2306 4.12115 13.2306 3.77109C13.2306 3.42103 12.9469 3.13727 12.5968 3.13727H7.36795C7.01795 3.13727 6.73413 3.42103 6.73413 3.77109C6.73413 4.12115 7.01795 4.4049 7.36795 4.4049Z"/>
<path d="M7.36795 7.54223H12.5968C12.9468 7.54223 13.2306 7.25848 13.2306 6.90842C13.2306 6.55842 12.9469 6.2746 12.5968 6.2746H7.36795C7.01795 6.2746 6.73413 6.55835 6.73413 6.90842C6.73419 7.25848 7.01795 7.54223 7.36795 7.54223Z"/>
<path d="M5.27624 3.13733C5.10958 3.13733 4.94606 3.20509 4.82812 3.32303C4.71018 3.44097 4.64243 3.60448 4.64243 3.77115C4.64243 3.93781 4.71018 4.10133 4.82812 4.21921C4.94606 4.33715 5.10958 4.40497 5.27624 4.40497C5.44352 4.40497 5.60643 4.33715 5.7243 4.21921C5.84285 4.10139 5.91006 3.93781 5.91006 3.77115C5.91006 3.60448 5.84285 3.44097 5.7243 3.32303C5.60643 3.20509 5.44352 3.13733 5.27624 3.13733Z"/>
<path d="M5.27624 6.27466C5.10958 6.27466 4.94606 6.34242 4.82812 6.46036C4.71018 6.57829 4.64243 6.74181 4.64243 6.90848C4.64243 7.07514 4.71018 7.23866 4.82812 7.35654C4.94606 7.47448 5.10958 7.54229 5.27624 7.54229C5.44352 7.54229 5.60643 7.47448 5.7243 7.35654C5.84285 7.23872 5.91006 7.07514 5.91006 6.90848C5.91006 6.74181 5.84285 6.57829 5.7243 6.46036C5.60643 6.34242 5.44352 6.27466 5.27624 6.27466Z"/>
<path d="M12.5969 10.6796C12.9469 10.6796 13.2307 10.3958 13.2307 10.0457C13.2307 9.69568 12.9469 9.41193 12.5969 9.41193H7.36801C7.01801 9.41193 6.73419 9.69568 6.73419 10.0457C6.73419 10.3958 7.01795 10.6796 7.36801 10.6796H12.5969Z"/>
<path d="M5.27624 9.41199C5.10958 9.41199 4.94606 9.47974 4.82812 9.59768C4.71018 9.71562 4.64243 9.87914 4.64243 10.0458C4.64243 10.2125 4.71018 10.376 4.82812 10.4939C4.94606 10.6118 5.10958 10.6796 5.27624 10.6796C5.44291 10.6796 5.60643 10.6118 5.7243 10.4939C5.84224 10.376 5.91006 10.2125 5.91006 10.0458C5.91006 9.87914 5.84224 9.71562 5.7243 9.59768C5.60643 9.47974 5.44291 9.41199 5.27624 9.41199Z"/>
</g>
<defs>
<clipPath id="clip0_5_188">
<rect width="18" height="18" fill="white"/>
</clipPath>
</defs>
</svg>
