<svg width="13" height="17" viewBox="0 0 13 17" fill="none" xmlns="http://www.w3.org/2000/svg">
<path d="M6.50001 0C3.03627 0 0.218262 2.81795 0.218262 6.28174C0.218262 9.63522 5.945 16.5609 6.18877 16.854C6.26568 16.9465 6.37971 17 6.50001 17C6.62025 17 6.73434 16.9465 6.81124 16.854C7.05507 16.5608 12.7817 9.63522 12.7817 6.28174C12.7817 2.81795 9.9638 0 6.50001 0ZM6.50001 15.9529C5.99222 15.3188 4.93719 13.9679 3.89318 12.4235C2.01864 9.65071 1.02779 7.5269 1.02779 6.28174C1.02779 3.26432 3.48264 0.809524 6.50001 0.809524C9.51737 0.809524 11.9722 3.26432 11.9722 6.28174C11.9722 7.52684 10.9814 9.65066 9.10683 12.4235C8.06276 13.9679 7.00779 15.3188 6.50001 15.9529Z" fill="#FD191A"/>
<path d="M8.55928 11.5468C8.37406 11.4217 8.1224 11.4705 7.99731 11.6557C7.45109 12.4642 6.8392 13.3116 6.17863 14.1744C6.04274 14.3519 6.07641 14.6059 6.25392 14.7418C6.32731 14.798 6.41382 14.8252 6.49969 14.8252C6.62133 14.8252 6.74168 14.7706 6.82134 14.6665C7.49162 13.7912 8.11296 12.9306 8.66808 12.1089C8.79323 11.9236 8.74455 11.672 8.55928 11.5468Z" fill="#FD191A"/>
<path d="M6.49996 3.10317C4.66984 3.10317 3.18091 4.5921 3.18091 6.42222C3.18091 8.25234 4.66984 9.74127 6.49996 9.74127C8.33007 9.74127 9.819 8.25234 9.819 6.42222C9.819 4.5921 8.33007 3.10317 6.49996 3.10317ZM6.49996 8.93175C5.11621 8.93175 3.99043 7.80597 3.99043 6.42222C3.99043 5.03848 5.11621 3.9127 6.49996 3.9127C7.88376 3.9127 9.00948 5.03848 9.00948 6.42222C9.00948 7.80597 7.88376 8.93175 6.49996 8.93175Z" fill="#FD191A"/>
</svg>
