<svg width="17" height="17" viewBox="0 0 17 17" fill="none" xmlns="http://www.w3.org/2000/svg">
<path d="M8.50001 0C5.03627 0 2.21826 2.81795 2.21826 6.28174C2.21826 9.63522 7.945 16.5609 8.18877 16.854C8.26568 16.9465 8.37971 17 8.50001 17C8.62025 17 8.73434 16.9465 8.81124 16.854C9.05507 16.5608 14.7817 9.63522 14.7817 6.28174C14.7817 2.81795 11.9638 0 8.50001 0ZM8.50001 15.9529C7.99222 15.3188 6.93719 13.9679 5.89318 12.4235C4.01864 9.65071 3.02779 7.5269 3.02779 6.28174C3.02779 3.26432 5.48264 0.809524 8.50001 0.809524C11.5174 0.809524 13.9722 3.26432 13.9722 6.28174C13.9722 7.52684 12.9814 9.65066 11.1068 12.4235C10.0628 13.9679 9.00779 15.3188 8.50001 15.9529Z" fill="white"/>
<path d="M10.5593 11.5468C10.3741 11.4217 10.1224 11.4705 9.99731 11.6557C9.45109 12.4642 8.8392 13.3116 8.17863 14.1744C8.04274 14.3519 8.07641 14.6059 8.25392 14.7418C8.32731 14.798 8.41382 14.8252 8.49969 14.8252C8.62133 14.8252 8.74168 14.7706 8.82134 14.6665C9.49162 13.7911 10.113 12.9306 10.6681 12.1089C10.7932 11.9236 10.7445 11.672 10.5593 11.5468Z" fill="white"/>
<path d="M8.49996 3.10318C6.66984 3.10318 5.18091 4.59211 5.18091 6.42223C5.18091 8.25235 6.66984 9.74128 8.49996 9.74128C10.3301 9.74128 11.819 8.25235 11.819 6.42223C11.819 4.59211 10.3301 3.10318 8.49996 3.10318ZM8.49996 8.93175C7.11621 8.93175 5.99043 7.80597 5.99043 6.42223C5.99043 5.03848 7.11621 3.9127 8.49996 3.9127C9.88376 3.9127 11.0095 5.03848 11.0095 6.42223C11.0095 7.80597 9.88376 8.93175 8.49996 8.93175Z" fill="white"/>
</svg>
