<svg width="20" height="20" viewBox="0 0 20 20" fill="none" xmlns="http://www.w3.org/2000/svg">
<path d="M10 0C6.76841 0 4.13934 2.62906 4.13934 5.86066C4.13934 6.74196 4.33024 7.58895 4.70658 8.37867C4.71415 8.39556 4.72211 8.41215 4.73059 8.42874L9.15862 17.0023C9.32119 17.317 9.64579 17.5147 9.99993 17.5147C10.3541 17.5147 10.6787 17.3171 10.8412 17.0023L15.2681 8.43109C15.2757 8.41632 15.2828 8.4014 15.2896 8.38632C15.6685 7.59433 15.8605 6.74477 15.8605 5.86066C15.8607 2.62906 13.2316 0 10 0ZM10 8.92825C8.30853 8.92825 6.93241 7.55214 6.93241 5.86066C6.93241 4.16926 8.30853 2.79314 10 2.79314C11.6915 2.79314 13.0676 4.16926 13.0676 5.86066C13.0676 7.55214 11.6915 8.92825 10 8.92825Z" fill="white"/>
<path d="M12.2575 18.8637H7.74252C7.42868 18.8637 7.17438 19.118 7.17438 19.4319C7.17438 19.7457 7.42868 20 7.74252 20H12.2575C12.5714 20 12.8257 19.7457 12.8257 19.4319C12.8257 19.118 12.5713 18.8637 12.2575 18.8637Z" fill="white"/>
<circle cx="10" cy="6" r="2" fill="#FD191A"/>
</svg>
