<svg width="16" height="16" viewBox="0 0 16 16" fill="none" xmlns="http://www.w3.org/2000/svg">
<g clip-path="url(#clip0_36_130)">
<path d="M12.9789 6.51173H12.9448V4.96755C12.9448 2.28226 10.7478 4.14178e-05 8.06815 0.0454586C5.46233 0.0908758 3.35043 2.22548 3.35043 4.84265V4.99026C3.35043 5.21166 3.5321 5.39333 3.75351 5.39333H5.04223C5.26363 5.39333 5.4453 5.21166 5.4453 4.99026V4.94484C5.4453 3.50284 6.52964 2.23684 7.97163 2.146C9.53853 2.04949 10.8443 3.29279 10.8443 4.83697V6.50605H6.87027V6.51173H3.19715C2.51589 6.53444 1.96521 7.08512 1.96521 7.77206V14.755C1.96521 15.4532 2.53292 16.021 3.23121 16.021H12.9732C13.6715 16.021 14.2392 15.4532 14.2392 14.755V7.77774C14.2449 7.07945 13.6772 6.51173 12.9789 6.51173ZM8.85727 11.5814C8.76076 11.6496 8.73237 11.7234 8.73237 11.8369C8.73805 12.3478 8.73805 12.8588 8.73237 13.3754C8.74373 13.5911 8.63586 13.7955 8.44284 13.892C7.99434 14.1191 7.54585 13.8012 7.54585 13.3754C7.54585 13.3754 7.54585 13.3754 7.54585 13.3697C7.54585 12.8588 7.54585 12.3422 7.54585 11.8312C7.54585 11.729 7.52314 11.6552 7.4323 11.5871C6.96678 11.2465 6.8135 10.6617 7.04626 10.1451C7.27335 9.64552 7.82403 9.35031 8.34065 9.45817C8.91972 9.57172 9.3228 10.0429 9.32847 10.6163C9.3455 11.0194 9.18087 11.3487 8.85727 11.5814Z" fill="#1A47A2"/>
</g>
<defs>
<clipPath id="clip0_36_130">
<rect width="16" height="16" fill="white"/>
</clipPath>
</defs>
</svg>
