<svg width="25" height="16" viewBox="0 0 25 16" fill="none" xmlns="http://www.w3.org/2000/svg">
<path d="M0.854492 8.10352V7.95312C0.854492 6.99154 0.954753 6.11882 1.15527 5.33496C1.36035 4.55111 1.62923 3.86296 1.96191 3.27051C2.29915 2.6735 2.66602 2.17904 3.0625 1.78711C3.45898 1.39518 3.85319 1.11263 4.24512 0.939453L4.62109 1.97852C4.36133 2.16992 4.10612 2.43424 3.85547 2.77148C3.60482 3.10417 3.37695 3.51432 3.17188 4.00195C2.97135 4.48503 2.80957 5.05469 2.68652 5.71094C2.56348 6.36263 2.50195 7.10547 2.50195 7.93945V8.11719C2.50195 8.95117 2.56348 9.69629 2.68652 10.3525C2.80957 11.0042 2.97135 11.5739 3.17188 12.0615C3.37695 12.5537 3.60482 12.9684 3.85547 13.3057C4.10612 13.6429 4.36133 13.9095 4.62109 14.1055L4.24512 15.1172C3.85319 14.944 3.45898 14.6615 3.0625 14.2695C2.66602 13.8822 2.29915 13.39 1.96191 12.793C1.62923 12.2005 1.36035 11.5124 1.15527 10.7285C0.954753 9.9401 0.854492 9.0651 0.854492 8.10352ZM12.0996 6.45605V8.17188H5.27734V6.45605H12.0996ZM9.625 3.75586V11.002H7.75879V3.75586H9.625ZM18.0059 2.02637V12H16.0371V4.2959L13.6719 5.04785V3.49609L17.7939 2.02637H18.0059ZM24.7119 7.95312V8.10352C24.7119 9.0332 24.6071 9.88997 24.3975 10.6738C24.1878 11.4531 23.9098 12.1436 23.5635 12.7451C23.2217 13.3512 22.8457 13.8548 22.4355 14.2559C22.0299 14.6569 21.6243 14.944 21.2188 15.1172L20.8359 14.1055C21.0957 13.9141 21.3486 13.6497 21.5947 13.3125C21.8454 12.9753 22.0732 12.5605 22.2783 12.0684C22.4834 11.5807 22.6452 11.0088 22.7637 10.3525C22.8867 9.69629 22.9482 8.95117 22.9482 8.11719V7.93945C22.9482 7.10547 22.8867 6.36035 22.7637 5.7041C22.6406 5.04785 22.4743 4.47591 22.2646 3.98828C22.0596 3.49609 21.8317 3.08366 21.5811 2.75098C21.335 2.41374 21.0866 2.14941 20.8359 1.95801L21.2188 0.939453C21.6243 1.11263 22.0299 1.40202 22.4355 1.80762C22.8457 2.20866 23.2217 2.70996 23.5635 3.31152C23.9098 3.91309 24.1878 4.60579 24.3975 5.38965C24.6071 6.16895 24.7119 7.02344 24.7119 7.95312Z" fill="#1A47A2"/>
</svg>
