<svg width="33" height="33" viewBox="0 0 33 33" fill="none" xmlns="http://www.w3.org/2000/svg">
<circle cx="16.5" cy="16.5" r="16.5" fill="#FD191A"/>
<path d="M22.8047 15.25H17.75V10.1953C17.75 9.53516 17.1914 9 16.5 9C15.8086 9 15.25 9.53516 15.25 10.1953V15.25H10.1953C9.53516 15.25 9 15.8086 9 16.5C9 17.1914 9.53516 17.75 10.1953 17.75H15.25V22.8047C15.25 23.4648 15.8086 24 16.5 24C17.1914 24 17.75 23.4648 17.75 22.8047V17.75H22.8047C23.4648 17.75 24 17.1914 24 16.5C24 15.8086 23.4648 15.25 22.8047 15.25Z" fill="white"/>
</svg>
