<svg width="14" height="14" viewBox="0 0 14 14" fill="none" xmlns="http://www.w3.org/2000/svg">
<path d="M8.94812 0H1.4342V14H12.5657V3.6176L8.94812 0ZM10.7013 3.29812H9.26804V1.86475L10.7013 3.29812ZM2.52632 12.9079V1.09212H8.17592V3.84418C8.17592 4.14575 8.42033 4.39024 8.72198 4.39024H11.4736V12.9079H2.52632Z" fill="white"/>
<path d="M10.1309 10.8486H3.86902V11.5767H10.1309V10.8486Z" fill="white"/>
<path d="M7.58644 4.01172H3.86902V4.7398H7.58644V4.01172Z" fill="white"/>
<path d="M8.82773 6.32964H9.23123L7.67176 7.88904L6.45237 6.66965L3.75659 9.36565L4.27134 9.88055L6.45237 7.69937L7.67176 8.91869L9.74605 6.84439V7.24702H10.4741V5.60156H8.82773V6.32964Z" fill="white"/>
<path d="M7.58644 2.42285H3.86902V3.15093H7.58644V2.42285Z" fill="white"/>
</svg>
