<svg width="44" height="44" viewBox="0 0 44 44" fill="none" xmlns="http://www.w3.org/2000/svg">
<path d="M22 0C9.86921 0 0 9.86921 0 22C0 34.1308 9.86921 44 22 44C34.1308 44 44 34.1308 44 22C44 9.86921 34.1309 0 22 0ZM22 41.6216C16.6104 41.6216 11.7218 39.437 8.17207 35.9075C6.75454 34.498 5.55121 32.8735 4.61427 31.0882C3.18737 28.3695 2.37841 25.2776 2.37841 22C2.37841 11.1806 11.1806 2.37841 22 2.37841C27.1319 2.37841 31.809 4.35963 35.3091 7.59635C37.1239 9.27431 38.6224 11.2894 39.703 13.5418C40.9323 16.1044 41.6216 18.9732 41.6216 22C41.6216 32.8194 32.8194 41.6216 22 41.6216ZM13.6955 41.0862C13.7312 41.1018 13.7668 41.1177 13.8028 41.1331C13.7668 41.1175 13.7312 41.1018 13.6955 41.0862Z" fill="#0DAC86"/>
<path d="M14.6416 19.6216C15.9552 19.6216 17.02 18.5567 17.02 17.2432C17.02 15.9296 15.9552 14.8648 14.6416 14.8648C13.328 14.8648 12.2632 15.9296 12.2632 17.2432C12.2632 18.5567 13.328 19.6216 14.6416 19.6216Z" fill="#0DAC86"/>
<path d="M29.3579 19.6216C30.6715 19.6216 31.7363 18.5567 31.7363 17.2432C31.7363 15.9296 30.6715 14.8648 29.3579 14.8648C28.0443 14.8648 26.9795 15.9296 26.9795 17.2432C26.9795 18.5567 28.0443 19.6216 29.3579 19.6216Z" fill="#0DAC86"/>
<path d="M35.017 11.3023L27.4849 8.04027L26.5397 10.2227L34.0718 13.4848L35.017 11.3023Z" fill="#0DAC86"/>
<path d="M9.9275 13.4857L17.4595 10.2237L16.5143 8.04123L8.98232 11.3032L9.9275 13.4857Z" fill="#0DAC86"/>
<path d="M31.314 24.0156C31.4866 23.692 31.6455 23.3556 31.7868 23.0157L33.8461 23.9728C33.6749 24.3849 33.4821 24.7926 33.2732 25.1845C30.8802 29.6739 26.1866 32.4032 21.3214 32.1358C16.4875 31.8713 12.104 28.6671 10.1538 23.9728L12.2131 23.0154C13.8244 26.8938 17.4451 29.541 21.4375 29.7596C25.4563 29.9801 29.3365 27.7254 31.314 24.0156Z" fill="#0DAC86"/>
</svg>
