<svg width="18" height="18" viewBox="0 0 18 18" fill="none" xmlns="http://www.w3.org/2000/svg">
<g clip-path="url(#clip0_502_90)">
<path d="M9.75 6.75H8.25V8.25H9.75V6.75ZM12.75 6.75H11.25V8.25H12.75V6.75ZM15 11.625C14.0662 11.625 13.1663 11.475 12.3225 11.1975C12.0638 11.115 11.7675 11.175 11.5612 11.3813L9.91125 13.035C7.785 11.955 6.0525 10.2188 4.96875 8.09625L6.61875 6.4425C6.825 6.23625 6.885 5.94 6.8025 5.68125C6.525 4.8375 6.375 3.93375 6.375 3C6.375 2.58375 6.04125 2.25 5.625 2.25H3C2.58375 2.25 2.25 2.58375 2.25 3C2.25 10.0425 7.9575 15.75 15 15.75C15.4163 15.75 15.75 15.4163 15.75 15V12.375C15.75 11.9587 15.4163 11.625 15 11.625ZM14.25 6.75V8.25H15.75V6.75H14.25Z" fill="#034C8E"/>
</g>
<defs>
<clipPath id="clip0_502_90">
<rect width="18" height="18" fill="white"/>
</clipPath>
</defs>
</svg>
