<svg width="15" height="18" viewBox="0 0 15 18" fill="none" xmlns="http://www.w3.org/2000/svg">
<path d="M10.3478 11.7913H4.6521V12.2563H10.3478V11.7913Z" fill="#0DAC86"/>
<path d="M10.3478 12.8385H4.6521V13.3036H10.3478V12.8385Z" fill="#0DAC86"/>
<path d="M5.48998 14.2616H9.51007C9.80201 14.2616 10.0588 14.112 10.2087 13.8858H4.79126C4.94128 14.112 5.19809 14.2616 5.48998 14.2616Z" fill="#0DAC86"/>
<path d="M14.9354 4.73176H14.6212V4.18566C14.6212 4.07 14.5274 3.97621 14.4118 3.97621H13.0282C13.0013 3.56202 12.9728 3.14787 12.9415 2.73381C12.9023 2.32708 12.5702 1.99803 12.1572 1.98792C9.30933 1.98792 5.69053 1.98792 2.84271 1.98792C2.42961 1.99799 2.09782 2.32708 2.05824 2.73381C2.02704 3.14787 1.99854 3.56206 1.97163 3.97621H0.588233C0.472572 3.97621 0.37878 4.07 0.37878 4.18566V4.73176H0.0645103C0.0289153 4.73176 0 4.76072 0 4.79645V6.76154C0 6.79723 0.0289153 6.82623 0.0645103 6.82623H0.37878V7.53992C0.37878 7.65558 0.472572 7.74937 0.588233 7.74937H1.78643C1.75413 8.7259 1.73363 9.7027 1.72581 10.6798C0.945052 10.8399 0.356087 11.5324 0.356087 12.3597V14.7947C0.356087 15.7254 1.10148 16.4847 2.02677 16.5083C2.04946 16.512 2.0727 16.5143 2.09626 16.5153V17.6248C2.09626 17.7453 2.19435 17.8432 2.31468 17.8432H3.72238C3.8428 17.8432 3.94071 17.7452 3.94071 17.6248V16.5165H11.0593V17.6248C11.0593 17.7453 11.1574 17.8432 11.2777 17.8432H12.6854C12.8058 17.8432 12.9038 17.7452 12.9038 17.6248V16.5153C12.9275 16.5143 12.9507 16.512 12.9735 16.5083C13.8986 16.4846 14.644 15.7254 14.644 14.7947V12.3597C14.644 11.5325 14.055 10.84 13.2742 10.6798C13.2665 9.70275 13.2459 8.72595 13.2136 7.74937H14.4118C14.5274 7.74937 14.6212 7.65558 14.6212 7.53992V6.82623H14.9354C14.9711 6.82623 15 6.79723 15 6.76154V4.79645C15 4.76076 14.9711 4.73176 14.9354 4.73176ZM3.00814 4.48854H11.9918C12.0819 5.70495 12.1543 6.94263 12.2069 8.17276H2.79302C2.84568 6.94244 2.91801 5.70462 3.00814 4.48854ZM0.797685 7.33047V6.82628H1.11177C1.14755 6.82628 1.17628 6.79727 1.17628 6.76159V4.79649C1.17628 4.76076 1.14755 4.7318 1.11177 4.7318H0.797685V4.39516H1.94482C1.88466 5.37329 1.83667 6.35179 1.8008 7.33051H0.797685V7.33047ZM1.38102 13.4073V12.3279C1.38102 12.0425 1.61239 11.8111 1.89779 11.8111H2.97717L1.38102 13.4073ZM10.8505 11.8277V12.2563C10.8505 12.365 10.8157 12.4653 10.7571 12.5475C10.8157 12.6296 10.8505 12.73 10.8505 12.8386V13.3036C10.8505 13.458 10.7807 13.5961 10.6711 13.6883C10.697 13.749 10.7115 13.8157 10.7115 13.8858C10.7115 13.9932 10.6779 14.0926 10.6205 14.1743C10.3704 14.544 9.95617 14.7643 9.51004 14.7643H5.48996C5.03939 14.7643 4.62163 14.5397 4.37224 14.1636C4.27831 14.0219 4.26394 13.8437 4.32978 13.6892C4.21961 13.597 4.14947 13.4585 4.14947 13.3037V12.8386C4.14947 12.73 4.18429 12.6297 4.24285 12.5475C4.18429 12.4653 4.14947 12.365 4.14947 12.2564V11.8278L2.82756 9.41085C2.80327 9.36643 2.8142 9.31098 2.85359 9.27913C2.89308 9.24733 2.94958 9.24825 2.98788 9.28137L4.59711 10.6716C4.83987 10.4545 5.15579 10.3307 5.48996 10.3307H9.51004C9.84422 10.3307 10.1601 10.4544 10.4028 10.6716L12.0121 9.28133C12.0504 9.2482 12.1069 9.24729 12.1464 9.27909C12.1858 9.31093 12.1968 9.36638 12.1724 9.41081L10.8505 11.8277ZM13.6189 12.3279V13.4073L12.0228 11.8111H13.1022C13.3876 11.8111 13.6189 12.0425 13.6189 12.3279ZM14.2023 4.73176H13.8882C13.8524 4.73176 13.8236 4.76072 13.8236 4.79645V6.76154C13.8236 6.79723 13.8524 6.82623 13.8882 6.82623H14.2023V7.33042H13.1992C13.1633 6.35165 13.1152 5.3732 13.0551 4.39507H14.2023V4.73176Z" fill="#0DAC86"/>
<path d="M9.51002 10.8333H5.48994C5.19799 10.8333 4.94123 10.9827 4.79126 11.2091H10.2087C10.0587 10.9827 9.80192 10.8333 9.51002 10.8333Z" fill="#0DAC86"/>
<path d="M11.7554 0.576017C11.7554 0.257858 11.4975 0 11.1796 0H9.62777V0.245185C9.62777 0.404127 9.49884 0.533056 9.33962 0.533056H5.66062C5.50145 0.533056 5.37248 0.404127 5.37248 0.245185V0H3.82066C3.50273 0 3.24487 0.257858 3.24487 0.576017V1.67562H11.7554V0.576017Z" fill="#0DAC86"/>
</svg>
