<svg width="14" height="17" viewBox="0 0 14 17" fill="none" xmlns="http://www.w3.org/2000/svg">
<path d="M9.529 11.4272H4.28381V11.8555H9.529V11.4272Z" fill="#FD191A"/>
<path d="M9.529 12.3916H4.28381V12.8198H9.529V12.3916Z" fill="#FD191A"/>
<path d="M5.05538 13.702H8.75745C9.0263 13.702 9.26275 13.5643 9.40086 13.356H4.41193C4.55008 13.5643 4.78657 13.702 5.05538 13.702Z" fill="#FD191A"/>
<path d="M13.7537 4.92571H13.4643V4.42281C13.4643 4.3163 13.3779 4.22993 13.2714 4.22993H11.9973C11.9725 3.8485 11.9463 3.46712 11.9175 3.08581C11.8814 2.71126 11.5755 2.40824 11.1953 2.39893C8.57263 2.39893 5.2401 2.39893 2.61756 2.39893C2.23714 2.40819 1.93159 2.71126 1.89515 3.08581C1.86641 3.46712 1.84017 3.84854 1.81539 4.22993H0.541425C0.434914 4.22993 0.348542 4.3163 0.348542 4.42281V4.92571H0.0591325C0.0263533 4.92571 -0.000274658 4.95238 -0.000274658 4.98528V6.79492C-0.000274658 6.82779 0.0263533 6.8545 0.0591325 6.8545H0.348542V7.51173C0.348542 7.61824 0.434914 7.70461 0.541425 7.70461H1.64484C1.61509 8.60389 1.59622 9.50342 1.58901 10.4032C0.870018 10.5507 0.327644 11.1884 0.327644 11.9503V14.1926C0.327644 15.0497 1.01407 15.749 1.86616 15.7707C1.88706 15.774 1.90846 15.7762 1.93016 15.7771V16.7988C1.93016 16.9098 2.02049 17 2.1313 17H3.42764C3.53853 17 3.6287 16.9097 3.6287 16.7988V15.7782H10.1842V16.7988C10.1842 16.9098 10.2745 17 10.3853 17H11.6816C11.7925 17 11.8828 16.9097 11.8828 16.7988V15.7771C11.9046 15.7762 11.9259 15.774 11.9469 15.7707C12.7989 15.7488 13.4853 15.0496 13.4853 14.1926V11.9503C13.4853 11.1884 12.9429 10.5508 12.2239 10.4033C12.2167 9.50347 12.1978 8.60393 12.168 7.70461H13.2714C13.3779 7.70461 13.4643 7.61824 13.4643 7.51173V6.8545H13.7537C13.7865 6.8545 13.8131 6.82779 13.8131 6.79492V4.98528C13.8131 4.95242 13.7865 4.92571 13.7537 4.92571ZM2.76991 4.70173H11.0429C11.1259 5.82191 11.1925 6.96169 11.241 8.09451H2.5718C2.62029 6.96152 2.68691 5.82162 2.76991 4.70173ZM0.734309 7.31884V6.85454H1.02355C1.0565 6.85454 1.08296 6.82783 1.08296 6.79497V4.98532C1.08296 4.95242 1.0565 4.92575 1.02355 4.92575H0.734309V4.61574H1.7907C1.7353 5.51649 1.6911 6.41758 1.65807 7.31889H0.734309V7.31884ZM1.2715 12.9149V11.9209C1.2715 11.6581 1.48457 11.4451 1.74739 11.4451H2.74138L1.2715 12.9149ZM9.99187 11.4604V11.8551C9.99187 11.9551 9.95981 12.0474 9.90588 12.1231C9.95981 12.1988 9.99187 12.2912 9.99187 12.3912V12.8195C9.99187 12.9617 9.92762 13.0888 9.82671 13.1737C9.85056 13.2296 9.86391 13.2911 9.86391 13.3557C9.86391 13.4545 9.8329 13.5461 9.78011 13.6213C9.54973 13.9617 9.1683 14.1646 8.75747 14.1646H5.05539C4.64047 14.1646 4.25576 13.9578 4.02609 13.6114C3.93959 13.481 3.92637 13.3169 3.98699 13.1746C3.88554 13.0896 3.82095 12.9621 3.82095 12.8195V12.3913C3.82095 12.2913 3.85301 12.1989 3.90694 12.1232C3.85301 12.0475 3.82095 11.9551 3.82095 11.8551V11.4604L2.60361 9.23466C2.58124 9.19375 2.59131 9.14268 2.62758 9.11336C2.66394 9.08408 2.71598 9.08492 2.75124 9.11542L4.23318 10.3957C4.45673 10.1957 4.74766 10.0817 5.05539 10.0817H8.75747C9.0652 10.0817 9.35613 10.1957 9.57964 10.3957L11.0616 9.11538C11.0969 9.08488 11.1489 9.08403 11.1853 9.11332C11.2216 9.14264 11.2317 9.19371 11.2093 9.23462L9.99187 11.4604ZM12.5413 11.9209V12.9149L11.0714 11.4451H12.0654C12.3283 11.4451 12.5413 11.6581 12.5413 11.9209ZM13.0785 4.92571H12.7893C12.7563 4.92571 12.7298 4.95238 12.7298 4.98528V6.79492C12.7298 6.82779 12.7563 6.8545 12.7893 6.8545H13.0785V7.3188H12.1548C12.1217 6.41746 12.0775 5.51641 12.0221 4.61565H13.0785V4.92571Z" fill="#FD191A"/>
<path d="M8.75747 10.5444H5.0554C4.78655 10.5444 4.5501 10.682 4.41199 10.8905H9.40092C9.26276 10.682 9.02627 10.5444 8.75747 10.5444Z" fill="#FD191A"/>
<path d="M10.825 1.09881C10.825 0.805819 10.5876 0.568359 10.2948 0.568359H8.86573V0.794148C8.86573 0.940517 8.747 1.05925 8.60038 1.05925H5.21241C5.06583 1.05925 4.94706 0.940517 4.94706 0.794148V0.568359H3.518C3.22522 0.568359 2.98776 0.805819 2.98776 1.09881V2.11143H10.825V1.09881Z" fill="#FD191A"/>
</svg>
