<svg width="32" height="26" viewBox="0 0 32 26" fill="none" xmlns="http://www.w3.org/2000/svg">
<path d="M2.51003 18.98C2.62503 19.405 3.06503 19.66 3.49003 19.545L14.31 16.645C14.735 16.53 14.99 16.09 14.875 15.665L12.39 6.39C12.275 5.965 11.835 5.71 11.41 5.825L7.55003 6.865L8.79003 11.5L5.70003 12.325L4.46003 7.69L0.595027 8.725C0.170027 8.84 -0.0849726 9.28 0.0300273 9.705L2.51003 18.98ZM19.2 0.199997C18.315 0.199997 17.6 0.914997 17.6 1.8V17.98L0.295027 22.7C0.0800273 22.76 -0.0449727 22.98 0.0150273 23.19L0.645027 25.505C0.705027 25.72 0.925027 25.845 1.13503 25.785L20.82 20.415C20.94 23.405 23.38 25.8 26.4 25.8C29.495 25.8 32 23.295 32 20.2V0.199997H19.2ZM26.4 22.6C25.075 22.6 24 21.525 24 20.2C24 18.875 25.075 17.8 26.4 17.8C27.725 17.8 28.8 18.875 28.8 20.2C28.8 21.525 27.725 22.6 26.4 22.6Z" fill="#F55800"/>
</svg>
