<svg width="29" height="22" viewBox="0 0 29 22" fill="none" xmlns="http://www.w3.org/2000/svg">
<path fill-rule="evenodd" clip-rule="evenodd" d="M8.97619 8.25C8.97619 5.21243 11.4493 2.75 14.5 2.75C17.5507 2.75 20.0238 5.21243 20.0238 8.25V9.625H21.4048C24.0741 9.625 26.2381 11.7796 26.2381 14.4375C26.2381 17.0954 24.0741 19.25 21.4048 19.25H20.0238C19.2611 19.25 18.6429 19.8656 18.6429 20.625C18.6429 21.3844 19.2611 22 20.0238 22H21.4048C25.5995 22 29 18.6142 29 14.4375C29 10.6965 26.2719 7.58996 22.6885 6.98258C22.0762 3.02793 18.6433 0 14.5 0C10.3568 0 6.92383 3.02793 6.31145 6.98258C2.72809 7.58996 0 10.6965 0 14.4375C0 18.6142 3.4005 22 7.59524 22H8.97619C9.73886 22 10.3571 21.3844 10.3571 20.625C10.3571 19.8656 9.73886 19.25 8.97619 19.25H7.59524C4.92586 19.25 2.7619 17.0954 2.7619 14.4375C2.7619 11.7796 4.92586 9.625 7.59524 9.625H8.97619V8.25ZM19.6193 12.7777L15.4765 8.65274C14.9372 8.11576 14.0628 8.11576 13.5235 8.65274L9.38066 12.7777C8.84137 13.3147 8.84137 14.1853 9.38066 14.7223C9.91996 15.2592 10.7943 15.2592 11.3336 14.7223L13.119 12.9445V20.625C13.119 21.3844 13.7373 22 14.5 22C15.2627 22 15.881 21.3844 15.881 20.625V12.9445L17.6664 14.7223C18.2056 15.2592 19.0801 15.2592 19.6193 14.7223C20.1586 14.1853 20.1586 13.3147 19.6193 12.7777Z" fill="#0DAC86"/>
</svg>
