<svg width="16" height="16" viewBox="0 0 16 16" fill="none" xmlns="http://www.w3.org/2000/svg">
<path d="M12.8038 11.4371L10.2563 10.1635C10.016 10.0432 9.8667 9.8016 9.8667 9.5328V8.6312C9.92777 8.55653 9.99203 8.47147 10.0584 8.3776C10.3888 7.91093 10.6536 7.39147 10.8462 6.8312C11.2224 6.65867 11.4667 6.28667 11.4667 5.86667V4.8C11.4667 4.5432 11.3707 4.2944 11.2 4.1V2.6816C11.215 2.53493 11.2736 1.66187 10.6422 0.9416C10.0944 0.3168 9.20563 0 8.00003 0C6.79443 0 5.90563 0.3168 5.3579 0.941333C4.72643 1.6616 4.7851 2.53493 4.80003 2.6816V4.1C4.62937 4.2944 4.53337 4.5432 4.53337 4.8V5.86667C4.53337 6.1912 4.68083 6.49387 4.93257 6.69573C5.17683 7.66293 5.68803 8.39173 5.8667 8.6256V9.508C5.8667 9.76613 5.7259 10.0029 5.4995 10.1267L3.12057 11.4243C2.34697 11.8464 1.8667 12.6555 1.8667 13.5365V14.4C1.8667 15.6656 5.8787 16 8.00003 16C10.1214 16 14.1334 15.6656 14.1334 14.4V13.5885C14.1334 12.6717 13.6238 11.8472 12.8038 11.4371Z" fill="#1A47A2"/>
</svg>
