<svg width="24" height="24" viewBox="0 0 24 24" fill="none" xmlns="http://www.w3.org/2000/svg">
<g clip-path="url(#clip0_1051_161)">
<path d="M6 3C7.10457 3 8 3.89543 8 5V19C8 20.1046 7.10457 21 6 21H4C3.44772 21 3 20.5523 3 20C3 19.4477 3.44772 19 4 19H6V5H4C3.44772 5 3 4.55228 3 4C3 3.44772 3.44772 3 4 3H6ZM20 3C20.5523 3 21 3.44772 21 4C21 4.51283 20.614 4.93551 20.1166 4.99327L20 5H18V19H20C20.5523 19 21 19.4477 21 20C21 20.5128 20.614 20.9355 20.1166 20.9933L20 21H18C16.9456 21 16.0818 20.1841 16.0055 19.1493L16 19V5C16 3.94564 16.8159 3.08183 17.8507 3.00549L18 3H20ZM12 7C12.5128 7 12.9355 7.38604 12.9933 7.88338L13 8V16C13 16.5523 12.5523 17 12 17C11.4872 17 11.0645 16.614 11.0067 16.1166L11 16V8C11 7.44772 11.4477 7 12 7Z" fill="#FD191A"/>
</g>
<defs>
<clipPath id="clip0_1051_161">
<rect width="24" height="24" fill="white"/>
</clipPath>
</defs>
</svg>
